<svg id="Icons" height="512" viewBox="0 0 64 64" width="512" xmlns="http://www.w3.org/2000/svg"><path d="m39.521 57.646h-38.225v-35.504h42.049" fill="#bedb9c"/><path d="m1.3 22.141v35.505h.133a38.905 38.905 0 0 0 27-35.505z" fill="#dcf9bd"/><path d="m21.907 57.652h-2v-6.918l-6.241-12.1 1.777-.916 6.357 12.315a1 1 0 0 1 .111.458z" fill="#115938"/><path d="m57.777 9.119h-6.533-6.534l-5.233 48.517h11.767 11.766z" fill="#1c7c54"/><path d="m44.71 9.119-5.233 48.517h11.767v-48.517z" fill="#2fa355"/><path d="m21.066 50.944a10.334 10.334 0 0 0 9.9-3.624c5.777-6.646 1.4-16.558 1.4-16.558s-6.787.421-11.221 4.665z" fill="#1c7c54"/><path d="m21.066 50.944a8 8 0 0 0 1.088.156 7.283 7.283 0 0 0 1.506-.256s4.985-3.728 2.7-10.924a12.114 12.114 0 0 0 -3.84-5.63 13.435 13.435 0 0 0 -1.375 1.137z" fill="#0e5e3a"/><path d="m10.388 30.1s-5.064 9.58.233 16.615c4.54 6.03 10.468 4.129 10.468 4.129s4.985-3.728 2.7-10.924c-2.66-8.393-13.401-9.82-13.401-9.82z" fill="#2fa355"/><path d="m12.871 45.7c-4.09-5.432-2-12.377-.841-15.262-1-.249-1.642-.335-1.642-.335s-5.064 9.58.233 16.615c4.54 6.03 10.468 4.129 10.468 4.129a6.908 6.908 0 0 0 .808-.769 9.986 9.986 0 0 1 -9.026-4.378z" fill="#53d377"/><path d="m36.391 9.075h-6.533-6.534l-1.453 13.066h7.987 7.987z" fill="#1c7c54"/><path d="m23.324 9.075-1.453 13.066h6.178l1.454-13.066z" fill="#2fa355"/><path d="m36.938 13.993h-14.124l.51-4.918h13.067z" fill="#d3bf4c"/><path d="m28.956 13.993.547-4.918h-6.179l-.51 4.918z" fill="#efef62"/><path d="m63.01 57.636-.664-6.161h-22.205l-.664 6.161h11.767z" fill="#d3bf4c"/><path d="m44.18 14.037h14.128l-.531-4.918h-13.067z" fill="#d3bf4c"/><path d="m40.141 51.475-.664 6.161h11.767v-6.161z" fill="#efef62"/><path d="m51.244 9.119h-6.534l-.53 4.918h7.064z" fill="#efef62"/><path d="m21.8 50.033-6.357-12.313-1.777.916 6.241 12.1v.332a7.261 7.261 0 0 0 1.182-.222 6.475 6.475 0 0 0 .748-.7 1.034 1.034 0 0 0 -.037-.113z" fill="#1c7c54"/><g fill="#115938"><path d="m50.244 23.38h2v6.763h-2z"/><path d="m50.244 36.612h2v6.763h-2z"/></g></svg>