<svg id="Icons" height="512" viewBox="0 0 64 64" width="512" xmlns="http://www.w3.org/2000/svg"><path d="m31.579 1.581a20.846 20.846 0 0 0 -12.722 37.1l2.062 15.231 11.536-.194 11.537-.194 1.549-15.292a20.846 20.846 0 0 0 -13.962-36.651z" fill="#bedb9c"/><path d="m46.278 7.3a20.856 20.856 0 1 0 -27.421 31.381l.3 2.179a44.01 44.01 0 0 0 27.121-33.56z" fill="#dcf9bd"/><path d="m30.985 34.728h2v9.236h-2z" fill="#1c7c54"/><path d="m31.97 35.089a9.988 9.988 0 0 0 9.576-3.5c5.587-6.426 1.353-16.01 1.353-16.01s-6.563.406-10.85 4.51z" fill="#1c7c54"/><path d="m31.97 35.089a7.51 7.51 0 0 0 1.04.15 7.055 7.055 0 0 0 1.446-.246s4.82-3.605 2.614-10.562a11.718 11.718 0 0 0 -3.703-5.431 13.212 13.212 0 0 0 -1.318 1.091z" fill="#0e5e3a"/><path d="m21.645 14.935s-4.896 9.265.225 16.065c4.39 5.831 10.122 3.993 10.122 3.993s4.82-3.605 2.613-10.562c-2.574-8.116-12.96-9.496-12.96-9.496z" fill="#2fa355"/><path d="m24.3 30.143c-3.98-5.286-1.911-12.057-.79-14.813a17.055 17.055 0 0 0 -1.864-.395s-4.897 9.265.224 16.065c4.39 5.831 10.122 3.993 10.122 3.993a6.322 6.322 0 0 0 .642-.595 9.688 9.688 0 0 1 -8.334-4.255z" fill="#53d377"/><path d="m44.479 43.964h-24.907l1.347 9.948 11.536-.194 11.537-.194.968-9.56z" fill="#d3bf4c"/><path d="m24.994 53.721h14.046a0 0 0 0 1 0 0v3.541a4.887 4.887 0 0 1 -4.887 4.887h-4.273a4.887 4.887 0 0 1 -4.887-4.887v-3.541a0 0 0 0 1 .001 0z" fill="#d3bf4c"/><path d="m24.994 53.721h14.046v3.161h-14.046z" fill="#af9a37"/><path d="m38.409 43.964h-18.837l1.347 9.948 8.092-.136a17.779 17.779 0 0 0 9.398-9.812z" fill="#efef62"/><path d="m26.562 22.287-1.777.916 6.186 11.997a6.59 6.59 0 0 0 1.021-.2 6.563 6.563 0 0 0 .756-.715z" fill="#1c7c54"/></svg>