<svg id="Icons" height="512" viewBox="0 0 64 64" width="512" xmlns="http://www.w3.org/2000/svg"><path d="m53.216 21.721h-14.054l-11.827 14.658 1.395-14.658h-7.699-.169.001-9.911l-6.179 23.974h54.622z" fill="#bedb9c"/><path d="m44.045 21.721h-4.883l-11.827 14.658 1.395-14.658h-17.778l-6.179 23.979h23.035a43.214 43.214 0 0 0 16.237-23.979z" fill="#dcf9bd"/><path d="m21.94 45.695h20.155v6.195h-20.155z" fill="#1c7c54"/><path d="m21.94 45.695h20.155v2.805h-20.155z" fill="#0f603b"/><path d="m47.311 51.89h-15.227-15.226l-2.966 7.539h18.192 18.193z" fill="#2fa355"/><path d="m15.375 55.659h33.419l-1.483-3.769h-15.227-15.226z" fill="#53d377"/><path d="m7.605 34.708h10.705l-1.477 10.987h2.018l1.477-10.987h7.166l.191-2h-7.088l1.477-10.987h-1.043-.169.001-.808l-1.477 10.987h-10.457z" fill="#9fbc7a"/><path d="m45.859 34.708h10.705l-.516-2h-10.457l-1.477-10.987h-2.019l1.477 10.987h-10.488v-3.454l-2 2.478v.976h-.787l-1.614 2h2.401v10.987h2v-10.987h10.757l1.477 10.987h2.018z" fill="#9fbc7a"/><path d="m43.172 16.75-8.063-.024 1.168-14.11-15.415 19.105 7.87-.02-1.397 14.678z" fill="#d3bf4c"/><path d="m35.461 16.727h-.352l1.168-14.11-15.415 19.104 7.87-.02-.287 3.015a19.6 19.6 0 0 0 7.016-7.989z" fill="#efef62"/></svg>