<svg xmlns="http://www.w3.org/2000/svg" viewBox="0 0 514 116"><defs><style>      .cls-1 {        fill-rule: evenodd;      }      .cls-1, .cls-2 {        fill: #fff;      }    </style></defs><g><g id="BOARD"><g><path class="cls-2" d="M8.2,74.1c-.4,0-.7-.3-.7-.7v-31.4c0-.4.3-.7.7-.7h14.9c.5,0,.8,0,1.2.5l2.6,2.7c.5.6.5.9.5,1.2v11.9c0,.3,0,.7-.5,1.3l-2.6,2.7c-.4.4-.9.5-1.1.5h-8.8v11.3c0,.3-.3.7-.7.7h-5.5ZM20.5,54.4s.1-.1.1-.3v-4.5c0-.1,0-.2-.1-.3l-.8-.8c0,0-.2-.1-.4-.1h-4.8v6.9h4.8c.2,0,.3,0,.4-.1l.8-.7Z"></path><path class="cls-2" d="M50.1,73.6c-.4.4-.7.5-1.1.5h-12.2c-.5,0-.8,0-1.2-.5l-2.6-2.6c-.4-.4-.5-.7-.5-1.2v-24c0-.4.2-.9.5-1.2l2.6-2.6c.4-.4.8-.5,1.2-.5h12.1c.5,0,.7,0,1.2.5l2.7,2.6c.2.2.5.6.5,1.2v24c0,.3,0,.8-.5,1.2l-2.7,2.6ZM46.2,66.6c.1-.1.1-.2.1-.3v-16.7c0,0,0-.2-.1-.4l-.7-.7c-.1-.1-.2-.1-.3-.1h-4.5c-.1,0-.2,0-.3.1l-.8.7c-.1.1-.1.3-.1.4v16.7c0,0,0,.2.1.3l.7.7h5.4l.7-.7Z"></path><path class="cls-2" d="M75.6,73.6c-.4.4-.7.5-1.2.5h-14.9c-.4,0-.7-.3-.7-.7v-31.4c0-.4.3-.7.7-.7h14.9c.4,0,.8,0,1.2.5l2.6,2.6c.4.4.5.9.5,1.2v24c0,.3,0,.7-.5,1.2l-2.6,2.6ZM71.8,66.6c0-.1.1-.2.1-.3v-16.7c0,0,0-.2-.1-.3l-.8-.8c0-.1-.2-.1-.3-.1h-4.9v18.9h5.3l.7-.7Z"></path><path class="cls-2" d="M101.8,73.6c-.4.4-.9.5-1.3.5h-12.1c-.3,0-.8,0-1.2-.5l-2.6-2.6c-.5-.5-.5-.9-.5-1.2v-24c0-.1,0-.7.5-1.2l2.6-2.6c.5-.5.8-.5,1.2-.5h12.1c.4,0,.8,0,1.2.5l2.6,2.6c.4.4.5.7.5,1.2v5c0,.3-.3.7-.7.7h-5.6c-.4,0-.7-.3-.7-.7v-1.2c0-.1,0-.2-.1-.3l-.8-.8c0,0-.2-.1-.3-.1h-4.5c0,0-.2,0-.3.1l-.7.8c-.1.2-.2.2-.2.4v16.5c0,.1,0,.3.2.4l.7.7h5.4l.7-.7c0,0,.1-.2.1-.3v-1.4c0-.3.3-.7.7-.7h5.6c.3,0,.7.3.7.7v5.3c0,.2,0,.4-.5.8l-2.6,2.6Z"></path><path class="cls-2" d="M127.2,74.1c-.4,0-.7-.3-.8-.7l-1.1-3.8h-9.4l-1.1,3.8c0,.3-.5.7-.8.7h-5.3c-.6,0-.8-.3-.7-.7l9.3-31.4c.1-.4.3-.7.7-.7h5.6c.3,0,.5.2.7.7l9.3,31.3c0,.3-.2.7-.7.7h-5.3ZM120.5,53.7l-2.9,9.6h5.7l-2.8-9.6Z"></path><path class="cls-2" d="M154.2,73.6c-.3.3-.9.5-1.2.5h-12.1c-.5,0-.8-.1-1.2-.5l-2.6-2.6c-.3-.3-.5-.9-.5-1.3v-4.5c0-.4.3-.7.7-.7h5.5c.4,0,.7.3.7.7v2.1h5.9c0,0,.1,0,.2-.1l.8-.7c0,0,.1-.2.1-.3v-3.6c0-.2,0-.3-.2-.5l-.7-.7c0,0-.1-.1-.2-.1h-8.4c-.5,0-.8-.1-1.2-.5l-2.6-2.6c-.3-.3-.5-.7-.5-1.2v-11c0-.5.2-.9.5-1.2l2.6-2.6c.5-.5.8-.5,1.2-.5h12.1c.5,0,.8,0,1.2.5l2.6,2.6c.3.3.5.8.5,1.3v4.8c0,.4-.3.7-.7.7h-5.5c-.4,0-.7-.3-.7-.7v-2.3h-5.8c-.1,0-.2,0-.3.1l-.7.7c-.1.1-.2.2-.2.4v3.7c0,.1,0,.2.2.3l.7.7h8.8c.7,0,.8,0,1.2.5l2.6,2.6c.5.6.5.8.5,1.2v11.1c0,.3,0,.8-.5,1.2l-2.6,2.6Z"></path><path class="cls-2" d="M168.1,74.1c-.3,0-.7-.2-.7-.6v-25.2h-5.9c-.4,0-.7-.3-.7-.7v-5.5c0-.4.3-.7.7-.7h18.7c.4,0,.7.3.7.7v5.5c0,.4-.3.7-.7.7h-5.9v25.2c0,.3-.3.6-.7.6h-5.5Z"></path></g><g><path class="cls-2" d="M319.9,74.1c-.4,0-.7-.3-.7-.7l-.2-11.9-3.6,11.9c0,.3-.5.7-.8.7h-3.7c-.4,0-.8-.3-.9-.7l-3.6-11.9-.2,11.9c0,.4-.3.7-.7.7h-5.6c-.3,0-.7-.3-.7-.7l1.3-31.4c0-.3.2-.7.5-.7h5.9c.4,0,.6.2.7.6l4.2,18.1.5,3.9.4-3.9,4.9-18.1c0-.4.3-.6.7-.6h5.9c.4,0,.5.3.5.7l1.2,31.4c0,.4-.3.7-.7.7h-5.5Z"></path><path class="cls-2" d="M348.6,73.6c-.4.4-.7.5-1.1.5h-12.2c-.5,0-.8,0-1.2-.5l-2.6-2.6c-.4-.4-.5-.7-.5-1.2v-24c0-.4.2-.9.5-1.2l2.6-2.6c.4-.4.8-.5,1.2-.5h12.1c.5,0,.7,0,1.2.5l2.7,2.6c.2.2.5.6.5,1.2v24c0,.3,0,.8-.5,1.2l-2.7,2.6ZM344.8,66.6c.1-.1.1-.2.1-.3v-16.7c0,0,0-.2-.1-.4l-.7-.7c-.1-.1-.2-.1-.3-.1h-4.5c-.1,0-.2,0-.3.1l-.8.7c-.1.1-.1.3-.1.4v16.7c0,0,0,.2.1.3l.7.7h5.4l.7-.7Z"></path><path class="cls-2" d="M364.3,74.1c-.4,0-.7-.3-.8-.7l-8.1-31.1c0-.4.2-.8.6-.8h5.8c.4,0,.6.2.7.7l4.2,18,.4,2.8.5-2.8,5-18c0-.4.3-.7.7-.7h5.8c.4,0,.7.5.6.8l-8.1,31.1c0,.4-.5.7-.9.7h-6.2Z"></path><path class="cls-2" d="M383.9,74.1c-.4,0-.7-.3-.7-.7v-31.4c0-.4.3-.7.7-.7h17c.3,0,.7.3.7.7v5.6c0,.4-.3.7-.7.7h-10.8v6h8.3c.4,0,.7.3.7.7v5.6c0,.4-.3.7-.7.7h-8.3v6h10.8c.3,0,.7.3.7.7v5.6c0,.4-.3.7-.7.7h-17Z"></path><path class="cls-2" d="M426,74.1c-.4,0-.7-.3-.7-.7l-.2-11.9-3.6,11.9c0,.3-.5.7-.8.7h-3.7c-.4,0-.8-.3-.9-.7l-3.6-11.9-.2,11.9c0,.4-.3.7-.7.7h-5.6c-.3,0-.7-.3-.7-.7l1.3-31.4c0-.3.2-.7.5-.7h5.9c.4,0,.6.2.7.6l4.2,18.1.5,3.9.4-3.9,4.9-18.1c0-.4.3-.6.7-.6h5.9c.4,0,.5.3.5.7l1.2,31.4c0,.4-.3.7-.7.7h-5.5Z"></path><path class="cls-2" d="M437.9,74.1c-.4,0-.7-.3-.7-.7v-31.4c0-.4.3-.7.7-.7h17c.3,0,.7.3.7.7v5.6c0,.4-.3.7-.7.7h-10.8v6h8.3c.4,0,.7.3.7.7v5.6c0,.4-.3.7-.7.7h-8.3v6h10.8c.3,0,.7.3.7.7v5.6c0,.4-.3.7-.7.7h-17Z"></path><path class="cls-2" d="M473.5,74.1c-.4,0-.7-.3-.8-.7l-5.7-15.7v15.7c0,.3-.3.7-.7.7h-5.6c-.4,0-.7-.3-.7-.7v-31.4c0-.4.3-.7.7-.7h6.8c.3,0,.6.2.7.7l6.2,18,.2.5v-18.5c0-.4.3-.7.7-.7h5.6c.4,0,.7.3.7.7v31.4c0,.3-.3.7-.7.7h-7.4Z"></path><path class="cls-2" d="M493.1,74.1c-.3,0-.7-.2-.7-.6v-25.2h-5.9c-.4,0-.7-.3-.7-.7v-5.5c0-.4.3-.7.7-.7h18.7c.4,0,.7.3.7.7v5.5c0,.4-.3.7-.7.7h-5.9v25.2c0,.3-.3.6-.7.6h-5.5Z"></path></g><g><g><path class="cls-1" d="M201.7,63.8c.1,0,.3,0,.4,0v-9.2c-.4.1-.6.2-.8.4-.4.2-.7.3-1.1.5v5c.3.6.5,1.2.7,1.8.2.6.5,1.1.8,1.6Z"></path><path class="cls-2" d="M235.9,42.8c.1,1.3,1,4.9,1,4.9l2.4,3.4c-1.1-1.6-1.7-3.4-2.1-5-.5-2.2-.5-3.9-.5-3.9l-.8.6Z"></path><polygon class="cls-2" points="248.5 29 246.1 27.6 244.5 28 243.1 31 242.8 35.6 243.4 41.3 245 47.3 245.9 52.2 248 56.5 249.7 58.2 252 57.9 252.2 55.6 249.9 54.5 248.2 52 245.5 41.7 244.6 34.5 245.4 30.4 248.5 29"></polygon><path class="cls-2" d="M253.8,27.3c-8.3-1-15.8,4.9-16.8,13.2-1,8.3,4.9,15.8,13.2,16.8,8.3,1,15.8-4.9,16.8-13.2,1-8.3-4.9-15.8-13.2-16.8ZM244.3,51.4c-1.6-1.2-2.7-2.8-3.3-4.6-1-2.2-1.4-4.6-1-6.9.3-2.5,1.4-4.7,3-6.4l-.2,2.2.5,4-.7,1.5-.3,2.7.2,1.7.8,2.7,1.5,1.6-.2-2,.3-1.2v.5c.1,0,1.1,4.9,1.1,4.9l.3.5c-.7-.4-1.3-.8-1.9-1.3ZM246.5,42.5l-.6,1.2-.5-1.9-.9-7.2.6-3.1c2.4-1.6,5.3-2.4,8.4-1.9,1.1.2,3.1.9,3.1.9l-.5.7-2.1-.4-2.7.4-1.8.7-1.7.7-1.2,1.2-.8,3,.8,5.7ZM258.1,53.8c-2,.9-3.9,1.4-5.7,1.3-.6,0-1,0-1.3,0l-1.2-.5-1.7-2.6-.9-3.3h0c0,0,.8,0,.8,0l.9,2.4,1.1,1.5,1.4.4,2.4-.4s1.4-.3,2-.6l1.7-.8,1.9-1.5,1-.8,1.1-1.1,2-2.1.4-2s.5-.1.5,0c0,4.2-2.4,8.3-6.5,10.3Z"></path><path class="cls-2" d="M241.5,51.9l-3.3-11.8-3.6,1.3.2-2.4-1.4.4-1.1,8.9-3.5-1.3-1.2.7-2.2,6.4,1.7,1,6.2,3.6-4.3.9-5-7.4,2-14.6,1.9-1.2,11.3,1.7,1-2.2-13.2-.7-2.4,1.4-.5,3.4-17.9,9-.4,3.9-12.3,5-.4,2.8.8,4.3,1.4,2.1,13.5-4.2,2.8,3.4.7,5.1,7.3,6.1-5.9,18,3.9,5.4.4-.2s0,0,0,0l21.8-12.9c0,0,0-.2,0-.2l7-33.8-5.2-2ZM218.4,44.8l5.2-2.6-1.7,10.4,5,7.5h0s0,.1,0,.1l-4,.9-5.4-7.8,1-8.6ZM212.8,47.6l3.7-1.9-.7,7.9,5.4,7.9-4.4,1-4.4-6.5.4-8.4ZM211.9,63.6l-4.5-5.9.2-7.7,3.3-1.4-.5,7.3,4.8,7-3.4.8ZM238.2,87.2l-20.4,11-1.7-1.9,5.9-18.7-7.8-6.7v-5.5c-.1,0,11.8-3.3,11.8-3.3l-2.7,6.3,4.9,6.8-2-6.8,2-4.7,8.3-4.5-9-5.8,1.3-4.8,15.6,6.3-6.3,32.3Z"></path></g><path class="cls-2" d="M246,83l-3.1-5.4,34.2-19.8-10-5.8,3.1-5.4,15.7,9c1.6.9,1.6,3.3,0,4.2l-39.9,23.1Z"></path><path class="cls-2" d="M198.2,106.4v-38.3h6.2v31.6l5.3-3.1,3.1,5.4-11.1,6.4c-1.6.9-3.6-.2-3.6-2.1Z"></path><path class="cls-2" d="M204.4,50.5h-6.2V9.1c0-1.8,2-3,3.6-2.1l36.7,21.2-3.1,5.4-30.9-17.8v34.7Z"></path></g></g></g></svg>