<?xml version="1.0" encoding="utf-8"?>
<!-- Generator: Adobe Illustrator 26.5.0, SVG Export Plug-In . SVG Version: 6.00 Build 0)  -->
<svg version="1.1" id="Layer_1" xmlns="http://www.w3.org/2000/svg" xmlns:xlink="http://www.w3.org/1999/xlink" x="0px" y="0px"
	 viewBox="0 0 137 137" style="enable-background:new 0 0 137 137;" xml:space="preserve">
<style type="text/css">
	.st0{fill:#FF8800;}
	.st1{fill-rule:evenodd;clip-rule:evenodd;fill:#FFFFFF;}
	.st2{fill:#FFFFFF;}
	.st3{fill:none;stroke:#FFFFFF;stroke-width:9.8518;}
	.st4{fill:none;stroke:#FF8800;}
</style>
<g>
	<path class="st0" d="M68.6,6.9L68.6,6.9c34,0,61.6,27.6,61.6,61.6l0,0c0,34-27.6,61.6-61.6,61.6l0,0c-34,0-61.6-27.6-61.6-61.6l0,0
		C6.9,34.5,34.5,6.9,68.6,6.9z"/>
	<path class="st1" d="M34.6,46.6c-1.7,0-3,1.3-3,3V88c0,1.7,1.3,3,3,3h68c1.7,0,3-1.3,3-3V49.6c0-1.7-1.3-3-3-3H34.6z M40.5,52.5
		c-1.7,0-3,1.3-3,3v28c0,1.7,1.3,3,3,3h45.8c1.7,0,3-1.3,3-3v-28c0-1.7-1.3-3-3-3H40.5z M98.2,64.3c0,1.6-1.3,3-3,3
		c-1.6,0-3-1.3-3-3c0-1.6,1.3-3,3-3C96.8,61.4,98.2,62.7,98.2,64.3z M95.2,74.7c1.6,0,3-1.3,3-3c0-1.6-1.3-3-3-3c-1.6,0-3,1.3-3,3
		C92.2,73.4,93.6,74.7,95.2,74.7z"/>
	<path class="st2" d="M57.3,38L57.3,38c0.4-0.3,1.1-0.2,1.4,0.1l9.2,9.2c0.4,0.4,0.3,0.9-0.1,1.2l0,0c-0.4,0.3-1.1,0.2-1.4-0.1
		l-9.2-9.2C56.9,38.8,56.9,38.3,57.3,38z"/>
	<path class="st2" d="M57.3,38L57.3,38c0.4-0.3,1.1-0.2,1.4,0.1l9.2,9.2c0.4,0.4,0.3,0.9-0.1,1.2l0,0c-0.4,0.3-1.1,0.2-1.4-0.1
		l-9.2-9.2C56.9,38.8,56.9,38.3,57.3,38z"/>
	<path class="st2" d="M80.2,34.3L80.2,34.3c0.3,0.4,0.2,1.1-0.2,1.4L67.7,47.9c-0.4,0.4-0.9,0.3-1.2-0.1l0,0
		c-0.3-0.4-0.2-1.1,0.2-1.4L79,34.2C79.4,33.8,79.9,33.9,80.2,34.3z"/>
	<path class="st2" d="M80.2,34.3L80.2,34.3c0.3,0.4,0.2,1.1-0.2,1.4L67.7,47.9c-0.4,0.4-0.9,0.3-1.2-0.1l0,0
		c-0.3-0.4-0.2-1.1,0.2-1.4L79,34.2C79.4,33.8,79.9,33.9,80.2,34.3z"/>
	<path class="st2" d="M97.3,97.2L97.3,97.2c-0.7,0.5-1.7,0.4-2.3-0.2l-6.1-6.1c-0.6-0.6-0.5-1.4,0.2-1.9l0,0
		c0.7-0.5,1.7-0.4,2.3,0.2l6.1,6.1C98.1,95.9,98,96.7,97.3,97.2z"/>
	<path class="st2" d="M97.3,97.2L97.3,97.2c-0.7,0.5-1.7,0.4-2.3-0.2l-6.1-6.1c-0.6-0.6-0.5-1.4,0.2-1.9l0,0
		c0.7-0.5,1.7-0.4,2.3,0.2l6.1,6.1C98.1,95.9,98,96.7,97.3,97.2z"/>
	<path class="st2" d="M46.7,88.8L46.7,88.8c-0.7-0.5-1.7-0.4-2.3,0.2l-6.1,6.1c-0.6,0.6-0.5,1.4,0.2,1.9l0,0
		c0.7,0.5,1.7,0.4,2.3-0.2l6.1-6.1C47.5,90.1,47.4,89.3,46.7,88.8z"/>
	<path class="st2" d="M46.7,88.8L46.7,88.8c-0.7-0.5-1.7-0.4-2.3,0.2l-6.1,6.1c-0.6,0.6-0.5,1.4,0.2,1.9l0,0
		c0.7,0.5,1.7,0.4,2.3-0.2l6.1-6.1C47.5,90.1,47.4,89.3,46.7,88.8z"/>
	<path class="st3" d="M68.6,6.9L68.6,6.9c34,0,61.6,27.6,61.6,61.6l0,0c0,34-27.6,61.6-61.6,61.6l0,0c-34,0-61.6-27.6-61.6-61.6l0,0
		C6.9,34.5,34.5,6.9,68.6,6.9z"/>
	<path class="st4" d="M68.6,1.4L68.6,1.4c37.1,0,67.2,30.1,67.2,67.2v0c0,37.1-30.1,67.2-67.2,67.2h0c-37.1,0-67.2-30.1-67.2-67.2v0
		C1.4,31.5,31.5,1.4,68.6,1.4z"/>
</g>
</svg>
