<svg xmlns="http://www.w3.org/2000/svg" viewBox="0 0 110 110"><defs><style>.a{fill:#fff}.b{fill:#ddd}.e{fill:#999}</style></defs><path class="a" d="M97.5 13.5V69a1 1 0 01-1 1H46.56a2 2 0 01-1.8-1.27 3 3 0 00-2.3-1.73 2.6 2.6 0 00-.4 0H13.5a1 1 0 01-1-1V13.5a1 1 0 011-1h83a1 1 0 011 1z"/><rect class="b" x="17" y="52" width="24.5" height="12" rx="1"/><rect class="b" x="44" y="37" width="49" height="12" rx="1"/><rect class="b" x="44" y="52" width="49" height="12" rx="1"/><rect class="b" x="17" y="37" width="24.5" height="12" rx="1"/><path d="M99 13.5V69a2.49 2.49 0 01-2.5 2.49H61.65v13.88h11.93a1 1 0 011 1V87a1 1 0 01-1 1H44.42a1.33 1.33 0 01-1.31-1.31v-.23a1.31 1.31 0 011.29-1.09h4V71.5h-1.85a.75.75 0 010-1.5h49.94a1 1 0 001-1V13.5a1 1 0 00-1-1h-83a1 1 0 00-1 1v45.24a.74.74 0 01-.73.75.76.76 0 01-.75-.75V13.49A2.5 2.5 0 0113.49 11h83A2.5 2.5 0 0199 13.5z" fill="#aaa"/><rect x="17" y="18" width="76" height="15" rx="1" fill="#f80"/><path class="a" d="M42.05 67.94H7.54L10.7 90.7h28.07a2 2 0 001.92-1.7L44 70.23A2 2 0 0042.31 68z"/><ellipse class="e" cx="16.76" cy="105.55" rx="4.51" ry="4.48" transform="rotate(-45 16.763 105.557)"/><ellipse class="e" cx="32.26" cy="105.55" rx="4.51" ry="4.48" transform="rotate(-45 32.263 105.556)"/><path class="e" d="M42.31 68H10.37l-.66-4.68A1.5 1.5 0 008.23 62H1.52a1.5 1.5 0 000 3h5.42l4.73 33.36a1.5 1.5 0 001.49 1.28H35.5a1.5 1.5 0 000-3H14.42l-.84-5.94h25.19a2 2 0 001.92-1.7L44 70.23A2 2 0 0042.31 68zm-4.43 19.73H13.2l-2.39-16.82h30z"/></svg>