<?xml version="1.0" encoding="utf-8"?>
<!-- Generator: Adobe Illustrator 23.1.0, SVG Export Plug-In . SVG Version: 6.00 Build 0)  -->
<svg version="1.1"
	 id="svg3004" xmlns:cc="http://creativecommons.org/ns#" xmlns:dc="http://purl.org/dc/elements/1.1/" xmlns:rdf="http://www.w3.org/1999/02/22-rdf-syntax-ns#" xmlns:svg="http://www.w3.org/2000/svg"
	 xmlns="http://www.w3.org/2000/svg" xmlns:xlink="http://www.w3.org/1999/xlink" x="0px" y="0px" viewBox="0 0 145 145"
	 style="enable-background:new 0 0 145 145;" xml:space="preserve">
<style type="text/css">
	.st0{fill:#FFFFFF;}
</style>
<g id="g3012" transform="matrix(1.25,0,0,-1.25,0,142.175)">
	<g id="g3014" transform="scale(0.1,0.1)">
		<path id="path3016" class="st0" d="M579.7,954.6c-87.7,0-158.8,71.1-158.8,158.8h555.7c87.7,0,158.8-71.1,158.8-158.8l0-555.7
			c-87.7,0-158.8,71.1-158.8,158.8l0,317.6c0,43.8-35.6,79.4-79.4,79.4L579.7,954.6"/>
		<path id="path3018" class="st0" d="M817.8,716.5c0,43.8-35.5,79.4-79.4,79.4H103.4c-43.8,0-79.4-35.6-79.4-79.4V81.4
			C24,37.5,59.5,2,103.4,2h635.1c43.8,0,79.4,35.5,79.4,79.4V716.5"/>
	</g>
</g>
</svg>
