<svg width="43" height="31" viewBox="0 0 43 31" fill="none" xmlns="http://www.w3.org/2000/svg">
<path d="M41.9253 5.39114C41.4413 3.58303 40.0203 2.16212 38.2121 1.67812C34.9346 0.799988 21.8 0.799988 21.8 0.799988C21.8 0.799988 8.66554 0.799988 5.39142 1.67812C3.58322 2.16212 2.16225 3.58303 1.67822 5.39114C0.800049 8.66511 0.800049 15.5 0.800049 15.5C0.800049 15.5 0.800049 22.3349 1.67822 25.6088C2.16225 27.4169 3.58322 28.8379 5.39142 29.3219C8.66554 30.2 21.8 30.2 21.8 30.2C21.8 30.2 34.9346 30.2 38.2087 29.3219C40.0169 28.8379 41.4378 27.4169 41.9219 25.6088C42.8 22.3349 42.8 15.5 42.8 15.5C42.8 15.5 42.8 8.66511 41.9219 5.39114H41.9253ZM17.5994 21.799V9.20098L28.5108 15.5L17.5994 21.799Z" fill="#555555"/>
</svg>
