<svg width="43" height="35" viewBox="0 0 43 35" fill="none" xmlns="http://www.w3.org/2000/svg">
<path d="M42.3405 4.18627C40.964 4.78792 39.5138 5.20349 38.0281 5.42208C38.7245 5.42208 39.7424 4.05195 40.171 3.5415C40.8098 2.74444 41.2916 1.8327 41.5905 0.854959C41.5905 0.854959 41.5905 0.693761 41.5905 0.64003C41.5539 0.618809 41.5123 0.607646 41.47 0.607646C41.4277 0.607646 41.3861 0.618809 41.3495 0.64003C39.7326 1.50554 38.0139 2.16441 36.2336 2.60122C36.1817 2.63477 36.1213 2.6526 36.0595 2.6526C35.9978 2.6526 35.9373 2.63477 35.8854 2.60122C35.7247 2.44002 35.5907 2.27882 35.43 2.14449C34.6897 1.50647 33.8476 0.997895 32.9391 0.64003C31.7369 0.13876 30.4343 -0.0728578 29.1357 0.0221369C27.8803 0.100785 26.6562 0.448921 25.5465 1.04302C24.4207 1.63166 23.4272 2.4454 22.627 3.43404C21.7865 4.44832 21.1907 5.64352 20.886 6.92655C20.6582 8.14277 20.6582 9.39089 20.886 10.6071C20.886 10.822 20.886 10.8489 20.7253 10.822C13.9442 10.1335 7.66603 6.92268 3.12783 1.82212C2.91355 1.60719 2.80643 1.60719 2.64573 1.82212C1.72533 3.51492 1.37661 5.46129 1.65185 7.36959C1.92709 9.27789 2.8115 11.0453 4.17247 12.4071C4.51102 12.7412 4.86874 13.0552 5.24383 13.3474C4.06026 13.256 2.90536 12.9368 1.84222 12.4071C1.62794 12.4071 1.5476 12.4071 1.52082 12.5683C1.48138 12.9074 1.48138 13.25 1.52082 13.5892C1.73638 15.186 2.37417 16.6958 3.36798 17.9619C4.36179 19.228 5.67535 20.2042 7.17233 20.7891C7.52774 20.9614 7.907 21.0792 8.29732 21.1384C7.18988 21.3347 6.05668 21.3347 4.94924 21.1384C4.70818 21.1384 4.62776 21.1384 4.70811 21.4607C5.28109 22.9573 6.22706 24.2814 7.45564 25.3068C8.68422 26.3321 10.1544 27.0244 11.7257 27.3174C12.0204 27.3174 12.3417 27.3174 12.6631 27.3174C11.8864 28.5264 9.15436 29.4129 7.89548 29.8696C5.57164 30.7035 3.0957 31.0243 0.636881 30.8099C0.235112 30.8099 0.154755 30.8099 0.0476171 30.8099C-0.0595213 30.8099 0.0476171 30.9711 0.0476171 31.0517C0.0476171 31.1323 1.06545 31.6696 1.57436 31.9651C3.11679 32.7818 4.74208 33.4303 6.42236 33.8994C10.7488 35.2073 15.342 35.3522 19.7418 34.3197C24.1417 33.2871 28.1938 31.1133 31.4927 28.0159C33.8769 25.4341 35.7214 22.3996 36.9175 19.0913C38.1135 15.7829 38.6369 12.2679 38.4567 8.7534C38.4567 8.48475 38.7781 8.32354 38.9656 8.18921C40.2666 7.16177 41.4203 5.95945 42.394 4.61612C42.5388 4.42279 42.6143 4.18617 42.6084 3.94449V3.94449C42.6084 3.94449 42.528 4.10567 42.3405 4.18627Z" fill="#555555"/>
</svg>
