<svg width="35" height="35" viewBox="0 0 35 35" fill="none" xmlns="http://www.w3.org/2000/svg">
<rect width="35" height="35" rx="2" fill="#555555"/>
<path d="M5.37174 13.1302H10.6593V30.1327H5.37174V13.1302ZM8.02487 4.68506C8.63091 4.68506 9.22333 4.86476 9.72723 5.20145C10.2311 5.53815 10.6239 6.01673 10.8558 6.57664C11.0877 7.13654 11.1484 7.75263 11.0302 8.34702C10.9119 8.94142 10.6201 9.4874 10.1916 9.91593C9.76303 10.3445 9.21705 10.6363 8.62266 10.7545C8.02827 10.8728 7.41218 10.8121 6.85227 10.5802C6.29237 10.3483 5.81381 9.9555 5.47712 9.4516C5.14042 8.9477 4.96069 8.35527 4.96069 7.74924C4.96069 6.93656 5.28353 6.15718 5.85817 5.58254C6.43282 5.00789 7.2122 4.68506 8.02487 4.68506" fill="white"/>
<path d="M13.929 13.1303H18.9923V15.4471C19.505 14.5888 20.238 13.8833 21.1151 13.4037C21.9923 12.924 22.9818 12.6877 23.981 12.7192C29.3433 12.7192 30.3149 16.2318 30.3149 20.8094V30.1514H25.046V21.8744C25.046 20.006 25.046 17.3715 22.2994 17.3715C19.5529 17.3715 19.1232 19.5202 19.1232 21.7436V30.1514H13.8542L13.929 13.1303Z" fill="white"/>
</svg>
