<svg width="36" height="35" viewBox="0 0 36 35" fill="none" xmlns="http://www.w3.org/2000/svg">
<path d="M17.6007 4.99864C16.944 4.99905 16.2936 4.87007 15.6868 4.61905C15.08 4.36803 14.5286 3.99989 14.0641 3.53569C13.5996 3.07148 13.2311 2.52029 12.9797 1.91362C12.7283 1.30696 12.5989 0.656696 12.5989 0H30.0988C30.7553 0 31.4053 0.129294 32.0117 0.380499C32.6182 0.631704 33.1693 0.999901 33.6334 1.46407C34.0976 1.92823 34.4658 2.47928 34.717 3.08574C34.9682 3.69221 35.0975 4.34221 35.0975 4.99864V22.4986C34.4411 22.4986 33.7911 22.3693 33.1846 22.1181C32.5781 21.8669 32.0271 21.4987 31.5629 21.0345C31.0987 20.5704 30.7306 20.0193 30.4793 19.4129C30.2281 18.8064 30.0988 18.1564 30.0988 17.5V7.49954C30.0988 6.83626 29.8354 6.20015 29.3664 5.73114C28.8973 5.26213 28.2612 4.99864 27.598 4.99864H17.6007Z" fill="#555555"/>
<path d="M22.4986 10.0005H2.5009C1.11969 10.0005 0 11.1202 0 12.5014V32.4991C0 33.8803 1.11969 35 2.5009 35H22.4986C23.8798 35 24.9995 33.8803 24.9995 32.4991V12.5014C24.9995 11.1202 23.8798 10.0005 22.4986 10.0005Z" fill="#555555"/>
</svg>
