<svg xmlns="http://www.w3.org/2000/svg" viewBox="0 0 110 110"><defs><style>.a{fill:#ddd}.b{fill:#fff}.c{fill:#aaa}.d{fill:#f80}</style></defs><path class="a" d="M22.66 60.56h66v5.5h-66zM22.66 33.06h66v5.5h-66z"/><rect class="b" x="12.41" y="11.81" width="86.5" height="20.5" rx="1.25"/><path class="c" d="M97.66 12.56a.52.52 0 01.5.5v18a.5.5 0 01-.5.5h-84a.5.5 0 01-.5-.5v-18a.5.5 0 01.5-.5h84m0-1.5h-84a2 2 0 00-2 2v18a2 2 0 002 2h84a2 2 0 002-2v-18a2 2 0 00-2-2z"/><circle class="d" cx="22.66" cy="22.06" r="5"/><rect class="c" x="33.66" y="19.06" width="60" height="6" rx="1"/><rect class="b" x="12.41" y="39.31" width="86.5" height="20.5" rx="1.25"/><path class="c" d="M97.66 40.06a.52.52 0 01.5.5v18a.5.5 0 01-.5.5h-84a.5.5 0 01-.5-.5v-18a.5.5 0 01.5-.5h84m0-1.5h-84a2 2 0 00-2 2v18a2 2 0 002 2h84a2 2 0 002-2v-18a2 2 0 00-2-2z"/><circle class="d" cx="22.66" cy="49.56" r="5"/><rect class="c" x="33.66" y="46.56" width="60" height="6" rx="1"/><rect class="b" x="12.41" y="66.81" width="86.5" height="20.5" rx="1.25"/><path class="c" d="M97.66 67.56a.52.52 0 01.5.5v18a.5.5 0 01-.5.5h-84a.5.5 0 01-.5-.5v-18a.5.5 0 01.5-.5h84m0-1.5h-84a2 2 0 00-2 2v18a2 2 0 002 2h84a2 2 0 002-2v-18a2 2 0 00-2-2z"/><rect class="c" x="33.66" y="74.06" width="60" height="6" rx="1"/><circle class="d" cx="22.66" cy="77.06" r="5"/></svg>