<svg xmlns="http://www.w3.org/2000/svg" viewBox="0 0 110 110"><defs><style>.a{fill:#fff}.c{fill:#ddd}.d{fill:#f80}.e{fill:#bbb}</style></defs><path class="a" d="M97 11.05h-.25zM97.5 13.5V69a1 1 0 01-1 1H50v-2.5a1.5 1.5 0 00-1.5-1.5h-34a2 2 0 01-2-2V13.5a1 1 0 011-1h83a1 1 0 011 1z"/><path d="M99 13.5v55.75a2.07 2.07 0 01-.1.43 2.65 2.65 0 01-.18.42 2.65 2.65 0 01-.42.56 2.19 2.19 0 01-.57.43 2.53 2.53 0 01-.44.19 2.67 2.67 0 01-.75.11H61.65v13.98h11.93a1 1 0 011 1V87a1 1 0 01-1 1H51.5a1.5 1.5 0 01-1.5-1.5V70h46.5a1 1 0 001-1V13.5a1 1 0 00-1-1h-83a1 1 0 00-1 1v49.75a.75.75 0 01-1.5 0V13.5a2.5 2.5 0 012.5-2.5h83.29a2.07 2.07 0 01.43.1 2.65 2.65 0 01.42.18 2.11 2.11 0 01.56.42 2.19 2.19 0 01.43.57 2.44 2.44 0 01.19.44 2.67 2.67 0 01.18.79z" fill="#aaa"/><rect class="c" x="17" y="52" width="32" height="12" rx="1"/><rect class="c" x="52" y="37.12" width="41" height="12" rx="1"/><rect class="c" x="52" y="51.88" width="41" height="12" rx="1"/><rect class="c" x="17" y="37" width="32" height="12" rx="1"/><rect class="d" x="17" y="18" width="76" height="15" rx="1"/><path class="c" d="M6 94.5h37V98H6zM5.5 79h37v3.5h-37z"/><rect class="a" x=".75" y="67.75" width="47.5" height="10.5" rx="1.25"/><path class="e" d="M47 68.5a.5.5 0 01.5.5v8a.5.5 0 01-.5.5H2a.5.5 0 01-.5-.5v-8a.5.5 0 01.5-.5h45m0-1.5H2a2 2 0 00-2 2v8a2 2 0 002 2h45a2 2 0 002-2v-8a2 2 0 00-2-2z"/><circle class="d" cx="6.51" cy="73" r="2.5"/><rect class="a" x=".75" y="83.27" width="47.5" height="10.5" rx="1.25"/><path class="e" d="M47 84a.5.5 0 01.5.5v8a.5.5 0 01-.5.5H2a.5.5 0 01-.5-.5v-8A.5.5 0 012 84h45m0-1.5H2a2 2 0 00-2 2v8a2 2 0 002 2h45a2 2 0 002-2v-8a2 2 0 00-2-2z"/><circle class="d" cx="6.51" cy="88.52" r="2.5"/><rect class="a" x=".75" y="98.75" width="47.5" height="10.5" rx="1.25"/><path class="e" d="M47 99.5a.5.5 0 01.5.5v8a.5.5 0 01-.5.5H2a.5.5 0 01-.5-.5v-8a.5.5 0 01.5-.5h45m0-1.5H2a2 2 0 00-2 2v8a2 2 0 002 2h45a2 2 0 002-2v-8a2 2 0 00-2-2z"/><circle class="d" cx="6.51" cy="104" r="2.5"/></svg>