<svg xmlns="http://www.w3.org/2000/svg" viewBox="0 0 110 110"><defs><style>.a{fill:#fff}.b{fill:#ddd}</style></defs><path class="a" d="M13.41 71.49A2.49 2.49 0 0111.13 69V13.5a2.49 2.49 0 012.28-2.5 2.51 2.51 0 00-2.25 2.49V69a2.51 2.51 0 002.25 2.49z"/><path class="a" d="M97.66 13.5V69a1 1 0 01-1 1H38.93a1 1 0 01-1-.8 2.81 2.81 0 00-.33-.89 2.71 2.71 0 00-3.67-1l-4.11 2.37a1.92 1.92 0 01-1 .27H13.67a1 1 0 01-1-1V13.5a1 1 0 011-1h83a1 1 0 01.99 1z"/><path class="b" d="M27.17 37.13h4.09v1.5h-4.09zM27.17 47.63h4.09v1.5h-4.09zM17.72 37.13a.74.74 0 00-.75.73v3.41h1.5v-2.64h5v-1.5zM18.47 45H17v3.4a.76.76 0 00.75.75h5.75v-1.5h-5zM40 37.13h-5v1.5h5v2.64h1.5v-3.39a.76.76 0 00-.75-.75zM40 47.63h-5v1.5h5.75a.77.77 0 00.75-.75V45H40zM27.17 52.13h4.09v1.5h-4.09zM27.17 62.63h4.09v1.5h-4.09zM17.72 52.13a.74.74 0 00-.75.73v3.41h1.5v-2.64h5v-1.5zM18.47 60H17v3.4a.76.76 0 00.75.75h5.75v-1.5h-5zM40 52.13h-5v1.5h5v2.64h1.5v-3.39a.76.76 0 00-.75-.75zM40 62.63h-5v1.5h5.75a.77.77 0 00.75-.75V60H40zM54.52 37.13h6.59v1.5h-6.59zM43.97 47.33h1.5v6.59h-1.5zM65.17 37.13h6.59v1.5h-6.59zM75.82 37.13h6.59v1.5h-6.59zM54.52 62.63h6.59v1.5h-6.59zM65.17 62.63h6.59v1.5h-6.59zM75.82 62.63h6.59v1.5h-6.59zM44.72 37.13a.74.74 0 00-.75.73v5.41h1.5v-4.64h5v-1.5zM45.47 58H44v5.4a.76.76 0 00.75.75h5.75v-1.5h-5zM91.47 47.33h1.5v6.59h-1.5zM91.47 37.13h-5v1.5h5v4.64H93v-5.39a.76.76 0 00-.75-.75zM91.47 62.63h-5v1.5h5.75a.77.77 0 00.75-.75V58h-1.5z"/><rect x="16.97" y="18" width="76" height="15" rx="1" fill="#f80"/><path d="M99.13 13.5V69a2.48 2.48 0 01-2.48 2.5H61.79v13.87h11.92a1 1 0 011 1V87a1 1 0 01-1 1H36.65a1 1 0 01-1-1v-.63a1 1 0 011-1h11.91V71.5h-8.8a.75.75 0 110-1.5h56.87a1 1 0 001-1V13.5a1 1 0 00-1-1h-83a1 1 0 00-1 1V69a1 1 0 001 1h9.9a.77.77 0 01.75.75.79.79 0 01-.1.37.73.73 0 01-.65.38h-9.9a2.5 2.5 0 01-2.5-2.5V13.5a2.5 2.5 0 012.5-2.5h83a2.48 2.48 0 012.49 2.49z" fill="#aaa"/><path d="M35.25 68a1.89 1.89 0 00-.9.3L.86 87.66A1.69 1.69 0 00.21 90a1.74 1.74 0 001 .8l9.82 2.55-8.5 10.81a1.67 1.67 0 00.26 2.36l4 3.11a1.58 1.58 0 001 .35 1.76 1.76 0 001.38-.66L17.34 99l5.82 10.08a1.64 1.64 0 001.43.84 1.77 1.77 0 001.69-1.27l10.66-38.52a1.69 1.69 0 00-1.21-2.07 1.59 1.59 0 00-.43-.06z" fill="#bbb"/><path class="a" d="M35.31 69.5a.2.2 0 01.17.09.12.12 0 010 .12l-10.67 38.6a.19.19 0 01-.19.14h-.06a.2.2 0 01-.12-.07l-5.79-10.1-1.11-1.93-1.37 1.75-8.11 10.32a.21.21 0 01-.17.08.21.21 0 01-.12 0l-4-3.1a.19.19 0 01-.07-.14.16.16 0 010-.15l8.6-10.88 1.42-1.81-2.22-.57-9.84-2.55a.23.23 0 01-.14-.1.15.15 0 010-.13.19.19 0 01.1-.12L35.2 69.53a.2.2 0 01.11 0"/></svg>