<svg xmlns="http://www.w3.org/2000/svg" viewBox="0 0 110 110"><defs><style>.d{fill:#f80}</style></defs><path d="M30 70.23c-10.06 0-18.25-7.78-18.25-17.34V51.5a17.36 17.36 0 0110.77-15.79.77.77 0 00.48-.81 18.87 18.87 0 01-.24-3c0-11.13 9.54-20.19 21.25-20.2a21.16 21.16 0 0120.16 13.91.77.77 0 00.51.48h.19a.74.74 0 00.49-.18 12.58 12.58 0 018.14-3c6.77 0 12.27 5.2 12.28 11.59a.76.76 0 00.51.71A17.46 17.46 0 0198.23 51.5v1.39c0 9.56-8.18 17.34-18.25 17.34z" fill="#fff"/><path d="M44 12.49a20.39 20.39 0 0119.46 13.36 1.48 1.48 0 001 1 1.74 1.74 0 00.39 0 1.47 1.47 0 001-.36 11.8 11.8 0 017.68-2.78C79.86 23.76 85 28.62 85 34.6a1.52 1.52 0 001 1.4 16.68 16.68 0 0111.48 15.5v1.39c0 9.15-7.85 16.59-17.5 16.59H30c-9.65 0-17.5-7.44-17.5-16.59V51.5a16.61 16.61 0 0110.31-15.1 1.51 1.51 0 00.9-1.61 18.15 18.15 0 01-.22-2.85 18.79 18.79 0 016-13.72A20.94 20.94 0 0144 12.49M44 11c-12.15 0-22 9.38-22 21a20.09 20.09 0 00.22 3A18.11 18.11 0 0011 51.5v1.39C11 62.88 19.49 71 30 71h50c10.5 0 19-8.1 19-18.09V51.5a18.15 18.15 0 00-12.47-16.94c0-6.82-5.83-12.34-13-12.34a13.34 13.34 0 00-8.63 3.14A21.94 21.94 0 0044 11z" fill="#aaa"/><path d="M69.33 81.92h-6.72v-7a1 1 0 00-1-1h-14a1 1 0 00-1 1v7H39.9c-1.17 0-1.73 1.24-.87 1.92l14.71 11.78a1.43 1.43 0 001.75 0L70.2 83.84c.86-.68.3-1.92-.87-1.92z" fill="#bbb"/><path class="d" d="M70.2 52.13L55.49 40.35a1.43 1.43 0 00-1.75 0L39 52.13c-.86.69-.3 1.92.87 1.92h6.71v8h16v-8h6.72c1.2 0 1.76-1.23.9-1.92zM46.61 65.8a.76.76 0 00.75.75h14.5a.74.74 0 00.75-.73v-.77h-16z"/></svg>