<svg xmlns="http://www.w3.org/2000/svg" viewBox="0 0 110 110"><defs><style>.d{fill:#ddd}</style></defs><circle cx="56.01" cy="53.47" r="41.75" fill="#fff"/><path d="M56 12.47a41 41 0 11-41 41 41 41 0 0141-41M56 11a42.5 42.5 0 1042.5 42.5A42.5 42.5 0 0056 11z" fill="#aaa"/><path d="M85.1 29a78.53 78.53 0 01-13.23 2.67C70 25 67.26 19.54 64 16.12c.35.08.7.15 1 .24l.79.2 1.21.34.78.25 1.18.41.74.28 1.22.49.64.28c.49.23 1 .46 1.45.71l.36.16c.6.31 1.18.65 1.76 1l.41.26c.44.26.86.54 1.29.82.21.13.39.27.58.4.36.24.73.5 1.08.76s.41.31.61.48.66.51 1 .78l.61.52.93.84.57.54c.31.3.61.61.91.92l.53.54c.32.36.64.72 1 1.1l.4.44z" fill="#f80"/><path class="d" d="M85.05 78.05l-.4.46c-.23.27-.47.56-.72.82s-.4.43-.62.65-.47.48-.7.73l-.69.66-.69.63-.76.66c-.22.2-.44.38-.67.56l-.83.66-.62.45c-.31.23-.62.46-.94.68-.15.11-.3.2-.45.3a36.5 36.5 0 01-6 3.23c-.5.22-1 .42-1.51.61l-.21.09-1.48.52-.28.09q-.73.24-1.47.45l-.32.07c-.49.14-1 .26-1.49.38h-.12C67.32 87.38 70 82 71.85 75.4a80.16 80.16 0 0113.2 2.65zM68.63 75.06c-2.68 9.15-6.9 15.13-11 16.38v-17c3.76.08 7.48.29 11 .62zM54.37 74.48v17c-4.16-1.29-8.37-7.27-11.06-16.42 3.53-.33 7.24-.54 11.06-.58zM47.81 90.79h-.12l-1.48-.37-.32-.08c-.5-.14-1-.29-1.47-.45l-.29-.09c-.49-.16-1-.34-1.46-.52l-.23-.09c-.5-.19-1-.39-1.51-.61A38.46 38.46 0 0135 85.31c-.15-.1-.31-.19-.46-.3-.32-.22-.63-.45-.94-.68l-.6-.45c-.29-.22-.57-.44-.84-.67s-.44-.35-.67-.55l-.78-.66-.71-.63-.69-.67c-.23-.22-.47-.47-.7-.72s-.42-.43-.62-.66l-.72-.8-.39-.47a79.26 79.26 0 0113.21-2.65C42 82 44.62 87.38 47.81 90.79zM93.9 55.13a38.15 38.15 0 01-6.35 19.59l-.44.62a78.45 78.45 0 00-14.45-3.08 83 83 0 002-17.13zM71.47 55.13a80.14 80.14 0 01-2 16.76c-3.75-.37-7.74-.59-11.89-.63V55.13zM54.37 55.13v16.13c-4.15 0-8.14.26-11.9.63a80.81 80.81 0 01-2-16.76zM39.28 72.26a78.45 78.45 0 00-14.45 3.08c-.15-.22-.3-.42-.44-.64a38 38 0 01-6.34-19.57h19.21a84.47 84.47 0 002.02 17.13zM93.9 51.9H74.68a83 83 0 00-2-17.13 79.54 79.54 0 0014.49-3.09c.15.21.29.41.43.63a38 38 0 016.3 19.59zM71.47 51.9H57.58V35.77c4.15 0 8.14-.27 11.89-.64a79.57 79.57 0 012 16.77zM54.37 35.77V51.9h-13.9a80.91 80.91 0 012-16.77c3.76.37 7.75.6 11.9.64zM39.27 34.77a84.44 84.44 0 00-2 17.13H18.05a37.82 37.82 0 016.3-19.59c.14-.22.3-.42.44-.63a78.78 78.78 0 0014.48 3.09zM47.91 16.12c-3.23 3.42-5.95 8.82-7.83 15.51A78.55 78.55 0 0126.84 29l.06-.09c.14-.17.29-.32.43-.48.3-.36.61-.71.93-1.06l.55-.57c.29-.3.59-.6.89-.89a8 8 0 01.6-.56l.91-.82.62-.54c.32-.26.64-.52 1-.76l.63-.5c.34-.25.7-.49 1-.74l.6-.41c.42-.28.84-.55 1.27-.81.15-.08.29-.18.43-.27.58-.34 1.17-.67 1.77-1l.37-.18c.48-.24 1-.47 1.43-.69l.66-.28c.4-.17.8-.34 1.21-.49l.74-.28c.39-.14.77-.28 1.17-.41s.91-.28 1.42-.48a12.21 12.21 0 001.33-.31zM54.37 15.58v17c-3.82 0-7.54-.23-11.06-.57 2.69-9.19 6.9-15.18 11.06-16.43zM68.63 32c-3.52.34-7.24.53-11 .57v-17c4.1 1.26 8.37 7.25 11 16.43z"/></svg>