<svg id="Layer_1" data-name="Layer 1" xmlns="http://www.w3.org/2000/svg" xmlns:xlink="http://www.w3.org/1999/xlink" viewBox="0 0 282 283"><defs><style>.cls-1,.cls-4{fill:none;}.cls-2,.cls-7{fill:#fff;}.cls-2,.cls-5{fill-rule:evenodd;}.cls-3{clip-path:url(#clip-path);}.cls-4{stroke:#164194;stroke-miterlimit:3.86;}.cls-5,.cls-6{fill:#164194;}</style><clipPath id="clip-path" transform="translate(-74 -407.39)"><rect class="cls-1" x="74" y="152.89" width="447" height="538"/></clipPath></defs><path class="cls-2" d="M74.5,548.89c0-77.87,62.9-141,140.5-141s140.5,63.13,140.5,141-62.9,141-140.5,141-140.5-63.13-140.5-141" transform="translate(-74 -407.39)"/><g class="cls-3"><path class="cls-4" d="M74.5,548.89c0-77.87,62.9-141,140.5-141s140.5,63.13,140.5,141-62.9,141-140.5,141-140.5-63.13-140.5-141Z" transform="translate(-74 -407.39)"/></g><path class="cls-5" d="M257.11,506.7c-.91,4-.47,6,1.34,6s3.17-2,4.09-6,.47-6-1.34-6-3.17,2-4.09,6m-7.05,0a17.1,17.1,0,0,1,4.05-8,11.05,11.05,0,0,1,8.39-3.8c3.26,0,5.47,1.27,6.66,3.8a12.27,12.27,0,0,1,.43,8,17.1,17.1,0,0,1-4,8,11.05,11.05,0,0,1-8.39,3.8q-4.89,0-6.66-3.8a12.14,12.14,0,0,1-.43-8" transform="translate(-74 -407.39)"/><path class="cls-5" d="M239.28,495.35l3.33,12a7.22,7.22,0,0,1,.15-2c.07-.49.6-2.82.6-2.82l1.85-7.15h7.11l-5.78,22.75h-7.1l-3.33-12a7.21,7.21,0,0,1-.15,2c-.07.5-.6,2.83-.6,2.83l-1.85,7.14H226.4l5.78-22.75" transform="translate(-74 -407.39)"/><path class="cls-5" d="M197,511.52l1.89-8.08h6.59l-2.08,9.85c-1,4.79-6.05,6-9.41,6-5.45-.09-7-4.21-6.56-6l2.3-9.81,6.6,0-1.93,8.08c-.09.45.46,1,1.17,1a1.37,1.37,0,0,0,1.43-1" transform="translate(-74 -407.39)"/><polyline class="cls-5" points="100.81 87.96 124.24 87.97 122.59 94.8 112.29 94.8 108.45 110.71 100.67 110.71 104.37 94.83 99.16 94.83"/><polyline class="cls-5" points="126.89 87.97 138.51 87.97 139.71 100.44 144.87 87.97 153.07 87.97 141.79 110.72 134.44 110.72 131.69 94.79 125.37 94.79"/><path class="cls-6" d="M278.57,501.51c-.16,1-.43,2.09-.69,3.12h1.26c.57,0,1.86-.72,1.86-1.76,0-.27-.19-1.37-1.17-1.36ZM283,509.4a37,37,0,0,1,2.85,6.06l5.1-20.11h7.13c6.36,0,9.15,4.57,7.79,10.79-1.87,8.57-5.43,12-13.22,12h-13.3c-1-2.83-2.07-5.57-2.82-8.12l-1.74,8h-7.46l5.74-22.69h8.46a7.12,7.12,0,0,1,6.68,7.06c.25,4.58-3.52,7-5.21,7m13.62-7.87L294,512c2.61,0,4-.9,5.1-6.76.44-2.42-.53-3.68-2.46-3.68" transform="translate(-74 -407.39)"/><path class="cls-6" d="M250.86,471c6.53-14,20.19-24.06,36.69-24.06A41.1,41.1,0,0,1,328.65,488c0,10.1-4.13,18.84-10.17,26a.56.56,0,0,1-.85.16.55.55,0,0,1,0-.82l0,0c5.64-6.72,8.57-15.83,8.57-25.29a38.64,38.64,0,0,0-38.64-38.64c-15.51,0-29.46,8.91-35.61,22.1a.64.64,0,0,1-.83.31.59.59,0,0,1-.25-.8" transform="translate(-74 -407.39)"/><path class="cls-6" d="M77.52,548.89A137.48,137.48,0,0,1,215,411.41v62.36a75.11,75.11,0,1,0,75.11,75.11h62.38a137.48,137.48,0,0,1-275,0" transform="translate(-74 -407.39)"/><path class="cls-6" d="M151.2,551.31h3.61V561h2v-9.69h3.63v-1.73H151.2v1.73Zm10.44,5.58a5.07,5.07,0,0,0,.34,1.92,3.63,3.63,0,0,0,1,1.37,4,4,0,0,0,1.48.82,6.14,6.14,0,0,0,1.92.28,6.06,6.06,0,0,0,1.92-.28,3.88,3.88,0,0,0,1.48-.82,3.63,3.63,0,0,0,1-1.37,4.88,4.88,0,0,0,.34-1.92v-7.31h-2v6.66a11.41,11.41,0,0,1-.06,1.16,2.53,2.53,0,0,1-.32,1.07,2,2,0,0,1-.8.77,3.83,3.83,0,0,1-3,0,2,2,0,0,1-.8-.77,2.68,2.68,0,0,1-.32-1.07,11.41,11.41,0,0,1-.06-1.16v-6.66h-2v7.31Zm4.24-8.62v-1.73h-1.82v1.73Zm.93-1.73v1.73h1.83v-1.73Zm9,14.46h2.23l3.9-11.42h-2l-3,9h0l-2.87-9H172L175.85,561Z" transform="translate(-74 -407.39)"/><path class="cls-6" d="M187.47,561h1.9v-8.4h0l5.2,8.4h2.11V549.58h-1.9V558h0l-5.22-8.42h-2.11V561Zm18.07-9.69a3.08,3.08,0,0,1,1.08,1,4.56,4.56,0,0,1,.62,1.4,6.5,6.5,0,0,1,0,3.2,4.56,4.56,0,0,1-.62,1.4,3.21,3.21,0,0,1-1.08,1,3.63,3.63,0,0,1-3.15,0,3,3,0,0,1-1.08-1,4.33,4.33,0,0,1-.62-1.4,6.5,6.5,0,0,1,0-3.2,4.33,4.33,0,0,1,.62-1.4,2.92,2.92,0,0,1,1.08-1,3.54,3.54,0,0,1,3.15,0Zm-3.87-1.52a5.16,5.16,0,0,0-1.72,1.29,5.78,5.78,0,0,0-1.08,1.91,7,7,0,0,0-.38,2.3,7.06,7.06,0,0,0,.38,2.32,5.78,5.78,0,0,0,1.08,1.91,5,5,0,0,0,1.72,1.28,5.73,5.73,0,0,0,4.59,0,5,5,0,0,0,1.72-1.28,5.78,5.78,0,0,0,1.08-1.91,7.06,7.06,0,0,0,.38-2.32,7,7,0,0,0-.38-2.3,5.78,5.78,0,0,0-1.08-1.91,5.16,5.16,0,0,0-1.72-1.29,5.73,5.73,0,0,0-4.59,0ZM211.26,561h2v-4.7h2.94a3,3,0,0,1,1.13.18,1.47,1.47,0,0,1,.7.55,2.28,2.28,0,0,1,.35.94,8.67,8.67,0,0,1,.1,1.35,8.71,8.71,0,0,0,0,.87,1.72,1.72,0,0,0,.26.81h2.14a2.38,2.38,0,0,1-.47-1.17,10.27,10.27,0,0,1-.15-1.83,3.22,3.22,0,0,0-.17-1.12,2.13,2.13,0,0,0-.42-.73,1.72,1.72,0,0,0-.55-.41,1.92,1.92,0,0,0-.56-.16v0c.1,0,.25-.1.46-.19a2.2,2.2,0,0,0,.63-.48,2.85,2.85,0,0,0,.56-.86,3.33,3.33,0,0,0,.24-1.35,2.83,2.83,0,0,0-.94-2.27,4.21,4.21,0,0,0-2.83-.82h-5.46V561Zm2-9.79h3.25a3.64,3.64,0,0,1,.74.07,1.56,1.56,0,0,1,.64.25,1.31,1.31,0,0,1,.44.54,2.05,2.05,0,0,1,.16.89,1.76,1.76,0,0,1-.49,1.36,2.08,2.08,0,0,1-1.46.46h-3.28v-3.57Zm9.26,9.79h4.74a5.47,5.47,0,0,0,2.27-.44,4.27,4.27,0,0,0,1.57-1.23,5.21,5.21,0,0,0,.9-1.81,8.06,8.06,0,0,0,.3-2.23,7.94,7.94,0,0,0-.3-2.22,5.17,5.17,0,0,0-.9-1.82,4.24,4.24,0,0,0-1.57-1.22,5.31,5.31,0,0,0-2.27-.45h-4.74V561Zm2-9.79h2a5.11,5.11,0,0,1,1.91.31,2.77,2.77,0,0,1,1.17.87,3.16,3.16,0,0,1,.58,1.29,8.72,8.72,0,0,1,0,3.22,3.15,3.15,0,0,1-.58,1.3,2.84,2.84,0,0,1-1.17.86,4.92,4.92,0,0,1-1.91.31h-2v-8.16Z" transform="translate(-74 -407.39)"/><path class="cls-6" d="M248.24,553.21a4.31,4.31,0,0,0-.5-1.65,4.1,4.1,0,0,0-1.05-1.22,4.68,4.68,0,0,0-1.49-.77,6.28,6.28,0,0,0-1.81-.26,5.32,5.32,0,0,0-2.3.48,5.16,5.16,0,0,0-1.72,1.29,5.78,5.78,0,0,0-1.08,1.91,7,7,0,0,0-.37,2.3,7.05,7.05,0,0,0,.37,2.32,5.78,5.78,0,0,0,1.08,1.91,5,5,0,0,0,1.72,1.28,5.63,5.63,0,0,0,4.2.14,4.45,4.45,0,0,0,1.51-1,4.64,4.64,0,0,0,1-1.47,5.34,5.34,0,0,0,.44-1.87H246.3a4.35,4.35,0,0,1-.27,1.17,3,3,0,0,1-.58.95,2.56,2.56,0,0,1-.88.64,2.73,2.73,0,0,1-1.18.23,3.26,3.26,0,0,1-1.58-.36,3.21,3.21,0,0,1-1.08-1,4.32,4.32,0,0,1-.61-1.4,6.5,6.5,0,0,1,0-3.2,4.32,4.32,0,0,1,.61-1.4,3.08,3.08,0,0,1,1.08-1,3.16,3.16,0,0,1,1.58-.37,3.28,3.28,0,0,1,1.09.17,2.6,2.6,0,0,1,.83.47,2.52,2.52,0,0,1,.57.72,4.32,4.32,0,0,1,.36.91Zm1.84,7.79h8.33v-1.72h-6.33v-3.35h5.76V554.3h-5.76v-3h6.22v-1.73h-8.22V561Zm10.08,0h2v-4.7h2.94a3,3,0,0,1,1.13.18,1.44,1.44,0,0,1,.69.55,2.43,2.43,0,0,1,.36.94,8.78,8.78,0,0,1,.09,1.35,8.71,8.71,0,0,0,0,.87,1.85,1.85,0,0,0,.27.81h2.14a2.38,2.38,0,0,1-.47-1.17,10.27,10.27,0,0,1-.15-1.83,3.22,3.22,0,0,0-.17-1.12,2.14,2.14,0,0,0-.43-.73,1.61,1.61,0,0,0-.55-.41,1.86,1.86,0,0,0-.55-.16v0c.1,0,.25-.1.46-.19a2.51,2.51,0,0,0,.63-.48,2.85,2.85,0,0,0,.56-.86,3.33,3.33,0,0,0,.24-1.35,2.84,2.84,0,0,0-.95-2.27,4.19,4.19,0,0,0-2.83-.82h-5.45V561Zm2-9.79h3.24a3.67,3.67,0,0,1,.75.07,1.56,1.56,0,0,1,.64.25,1.4,1.4,0,0,1,.44.54,2.21,2.21,0,0,1,.16.89,1.76,1.76,0,0,1-.5,1.36,2,2,0,0,1-1.45.46h-3.28v-3.57Z" transform="translate(-74 -407.39)"/><polygon class="cls-6" points="196.08 143.92 199.69 143.92 199.69 153.61 201.69 153.61 201.69 143.92 205.32 143.92 205.32 142.19 196.08 142.19 196.08 143.92 196.08 143.92"/><path class="cls-6" d="M202.75,571h-4.87v1.52h3a4.13,4.13,0,0,1-.22,1.31,2.57,2.57,0,0,1-.62,1,2.61,2.61,0,0,1-1,.62,3.58,3.58,0,0,1-1.36.2,3.25,3.25,0,0,1-1.57-.36,3,3,0,0,1-1.08-1,4.33,4.33,0,0,1-.62-1.4,6.5,6.5,0,0,1,0-3.2,4.33,4.33,0,0,1,.62-1.4,2.92,2.92,0,0,1,1.08-1,3.14,3.14,0,0,1,1.57-.37,3.9,3.9,0,0,1,1,.14,2.9,2.9,0,0,1,.9.44,2.35,2.35,0,0,1,.66.71,2.54,2.54,0,0,1,.35,1h2a4.48,4.48,0,0,0-.54-1.69,4.31,4.31,0,0,0-1.09-1.23,4.76,4.76,0,0,0-1.5-.73,6.06,6.06,0,0,0-1.77-.25,5.27,5.27,0,0,0-2.29.48,5.16,5.16,0,0,0-1.72,1.29,5.78,5.78,0,0,0-1.08,1.91,7,7,0,0,0-.38,2.3,7.06,7.06,0,0,0,.38,2.32,5.78,5.78,0,0,0,1.08,1.91,5,5,0,0,0,1.72,1.28,5.27,5.27,0,0,0,2.29.48,4.41,4.41,0,0,0,1.84-.36,4.56,4.56,0,0,0,1.6-1.26l.31,1.34h1.28v-6Zm1.92,6h1.82v-4.91a2.59,2.59,0,0,1,.15-.91,2.09,2.09,0,0,1,.4-.67,1.83,1.83,0,0,1,.58-.42,1.76,1.76,0,0,1,.68-.14,1.28,1.28,0,0,1,1.14.44,2.22,2.22,0,0,1,.32,1.3V577h1.82v-4.84a2.76,2.76,0,0,1,.42-1.64,1.53,1.53,0,0,1,1.34-.57,1.75,1.75,0,0,1,.83.16,1.05,1.05,0,0,1,.46.45,1.9,1.9,0,0,1,.18.71q0,.4,0,.9V577h1.83v-5.71a2.74,2.74,0,0,0-.73-2.14,3,3,0,0,0-2-.64,2.83,2.83,0,0,0-1.52.37,3.61,3.61,0,0,0-1.07,1,1.92,1.92,0,0,0-.92-1,3,3,0,0,0-1.4-.33,3.33,3.33,0,0,0-.88.1,2.54,2.54,0,0,0-1.22.71,5,5,0,0,0-.45.56h0v-1.15h-1.73V577Zm14,0h1.72v-1.13h0a1.86,1.86,0,0,0,.52.67,2.83,2.83,0,0,0,.69.42,3.71,3.71,0,0,0,.81.21,5.93,5.93,0,0,0,.84.06,3.26,3.26,0,0,0,1.58-.36,3.35,3.35,0,0,0,1.12-1,4.14,4.14,0,0,0,.65-1.39,5.79,5.79,0,0,0,.22-1.61,5.89,5.89,0,0,0-.24-1.71,4,4,0,0,0-.72-1.4,3.44,3.44,0,0,0-1.21-.95,3.94,3.94,0,0,0-1.7-.34,3,3,0,0,0-.72.09,2.64,2.64,0,0,0-.68.25,2.77,2.77,0,0,0-.6.41,2.4,2.4,0,0,0-.47.54h0v-4.22h-1.82V577Zm6.24-3.06a2.6,2.6,0,0,1-.4.93,2.14,2.14,0,0,1-.71.66,2,2,0,0,1-1.05.26,2.07,2.07,0,0,1-1-.23,2.47,2.47,0,0,1-.73-.6,2.72,2.72,0,0,1-.45-.92,4.34,4.34,0,0,1-.15-1.16,3.52,3.52,0,0,1,.58-2.13,2,2,0,0,1,1.74-.8,1.92,1.92,0,0,1,1,.25,2.14,2.14,0,0,1,.72.65,3.11,3.11,0,0,1,.43.94,3.93,3.93,0,0,1,.14,1.09,4.72,4.72,0,0,1-.12,1.06Zm3.69,3.06h2v-5.15h5.2V577h2V565.58h-2v4.54h-5.2v-4.54h-2V577Z" transform="translate(-74 -407.39)"/><polygon class="cls-7" points="36.89 195.79 38.79 199.28 58.86 188.36 56.96 184.87 36.89 195.79 36.89 195.79"/><path class="cls-7" d="M122,608a8.58,8.58,0,0,0-2.44,2.85,7.2,7.2,0,0,0-.79,3.16,8.53,8.53,0,0,0,.64,3.27,13.29,13.29,0,0,0,1.84,3.2,13.47,13.47,0,0,0,2.32,2.39,9,9,0,0,0,2.76,1.54,6.65,6.65,0,0,0,3,.29,6.58,6.58,0,0,0,3.08-1.37,6,6,0,0,0,1.26-1.3,5.76,5.76,0,0,0,.84-1.68,6.19,6.19,0,0,0,.27-1.94,6.68,6.68,0,0,0-.41-2.13l-.58-1.42c-.27-.66-.55-1.33-.84-2s-.54-1.32-.76-1.88l-.39-1a4.87,4.87,0,0,1-.36-2.18,2.81,2.81,0,0,1,2.45-2.31,2.9,2.9,0,0,1,1.33.25,4.4,4.4,0,0,1,1.19.77,7.4,7.4,0,0,1,1,1,5.91,5.91,0,0,1,1.34,3.26,3.85,3.85,0,0,1-1.58,3.08l2.41,3.16a6.56,6.56,0,0,0,2.76-5.35,8.27,8.27,0,0,0-.57-3.05,11.74,11.74,0,0,0-1.66-2.95,11.88,11.88,0,0,0-2.15-2.16,8.38,8.38,0,0,0-2.6-1.38,6.38,6.38,0,0,0-2.81-.24,6.07,6.07,0,0,0-2.82,1.24,6.78,6.78,0,0,0-1.25,1.26,4.7,4.7,0,0,0-.81,1.63,5.56,5.56,0,0,0-.17,2.07,8.33,8.33,0,0,0,.67,2.55c.61,1.51,1.13,2.77,1.57,3.78a25.85,25.85,0,0,1,1,2.76,3.36,3.36,0,0,1,.08,1.56,2.75,2.75,0,0,1-1.18,1.64,3.38,3.38,0,0,1-1.16.56,2.8,2.8,0,0,1-1.38,0,4.54,4.54,0,0,1-1.53-.71,7,7,0,0,1-1.59-1.59,8.53,8.53,0,0,1-1.14-1.95,5.23,5.23,0,0,1-.43-2,4.17,4.17,0,0,1,.46-1.91,5.18,5.18,0,0,1,1.51-1.71L122,608Z" transform="translate(-74 -407.39)"/><path class="cls-7" d="M155.08,626.49a6.23,6.23,0,0,1,.41,2.89,9.06,9.06,0,0,1-.84,2.94,13.18,13.18,0,0,1-1.73,2.72,12.61,12.61,0,0,1-2.35,2.21,8.74,8.74,0,0,1-2.72,1.38,6.09,6.09,0,0,1-2.91.16,6.48,6.48,0,0,1-2.89-1.43,6.26,6.26,0,0,1-1.94-2.56,6.1,6.1,0,0,1-.41-2.89,9.06,9.06,0,0,1,.84-2.94,13.18,13.18,0,0,1,1.73-2.72,12.55,12.55,0,0,1,2.34-2.21,8.79,8.79,0,0,1,2.73-1.38,6,6,0,0,1,2.91-.15,7,7,0,0,1,4.83,4Zm-4-7.24a10.38,10.38,0,0,0-4.29-.18,11.7,11.7,0,0,0-4.08,1.57,14.64,14.64,0,0,0-5.88,7.13,11.52,11.52,0,0,0-.77,4.31,10,10,0,0,0,1,4.16,11.45,11.45,0,0,0,7,5.81,9.85,9.85,0,0,0,4.28.19,11.32,11.32,0,0,0,4.08-1.57,14.29,14.29,0,0,0,3.53-3.1,14.07,14.07,0,0,0,2.35-4,11.47,11.47,0,0,0,.77-4.3,10.29,10.29,0,0,0-1-4.18,11.3,11.3,0,0,0-7-5.81Z" transform="translate(-74 -407.39)"/><polygon class="cls-7" points="78.28 241.57 81.31 243.26 100.92 226.77 97.89 225.09 78.28 241.57 78.28 241.57"/><polygon class="cls-7" points="94.87 249.48 98.56 250.98 107.18 229.82 103.49 228.32 94.87 249.48 94.87 249.48"/><polygon class="cls-7" points="106.02 253.83 122.13 257.71 122.94 254.36 110.69 251.4 112.26 244.9 123.39 247.59 124.16 244.41 113.03 241.73 114.43 235.91 126.46 238.81 127.27 235.45 111.37 231.62 106.02 253.83 106.02 253.83"/><path class="cls-7" d="M223.69,650.84a8.68,8.68,0,0,0-.93-3.31,7.94,7.94,0,0,0-2-2.48,9.1,9.1,0,0,0-3-1.59,11.88,11.88,0,0,0-3.58-.58,10.59,10.59,0,0,0-4.58.88,10.26,10.26,0,0,0-3.46,2.54,11.51,11.51,0,0,0-2.21,3.77,14.73,14.73,0,0,0-.15,9.25,11.49,11.49,0,0,0,2.08,3.84,10.06,10.06,0,0,0,3.38,2.63,10.72,10.72,0,0,0,4.55,1,10.39,10.39,0,0,0,3.8-.61,9,9,0,0,0,3-1.85,9.35,9.35,0,0,0,2.07-2.9,11.06,11.06,0,0,0,.93-3.73l-3.88-.06a9.25,9.25,0,0,1-.58,2.33,6.22,6.22,0,0,1-1.17,1.88,5.28,5.28,0,0,1-1.77,1.25,5.73,5.73,0,0,1-2.37.43,6.3,6.3,0,0,1-3.12-.79,6.13,6.13,0,0,1-2.11-2,8.9,8.9,0,0,1-1.18-2.82,13,13,0,0,1,.1-6.4,9,9,0,0,1,1.27-2.78,6.14,6.14,0,0,1,2.18-1.93,6.31,6.31,0,0,1,3.15-.69,6.74,6.74,0,0,1,2.17.37,5.25,5.25,0,0,1,1.62,1,5,5,0,0,1,1.12,1.46,7.58,7.58,0,0,1,.67,1.84l4,.06Z" transform="translate(-74 -407.39)"/><path class="cls-7" d="M254.54,656.24l-10.41,3.06a3.55,3.55,0,0,1,.4-1.57,10.55,10.55,0,0,1,1-1.61c.41-.55.86-1.1,1.35-1.67s1-1.16,1.47-1.77a21.85,21.85,0,0,0,1.37-1.9,11.75,11.75,0,0,0,1.05-2.06,7.69,7.69,0,0,0,.5-2.23A6.65,6.65,0,0,0,251,644a7.94,7.94,0,0,0-1-2.1,6.16,6.16,0,0,0-1.77-1.79,6.47,6.47,0,0,0-2.6-1A8.82,8.82,0,0,0,239.2,641a6.91,6.91,0,0,0-1.79,2.41,7.55,7.55,0,0,0-.65,3,11.41,11.41,0,0,0,.5,3.44l3.48-1a13.21,13.21,0,0,1-.4-2.19,6,6,0,0,1,.11-1.88,3.27,3.27,0,0,1,.77-1.46,3.37,3.37,0,0,1,1.6-.92,4,4,0,0,1,1.94-.16,3.26,3.26,0,0,1,1.38.63A3.41,3.41,0,0,1,247,644a6.54,6.54,0,0,1,.5,1.2,4.42,4.42,0,0,1,0,2.42,8.66,8.66,0,0,1-1,2.25,17.89,17.89,0,0,1-1.62,2.16c-.61.71-1.19,1.42-1.73,2.13a12.21,12.21,0,0,0-2.4,4.47,9.25,9.25,0,0,0,.09,5l14.59-4.29-.92-3.13Z" transform="translate(-74 -407.39)"/><path class="cls-7" d="M252.54,640l10.36-5.26a39.5,39.5,0,0,0-1,5.2,34.36,34.36,0,0,0-.24,5.36,31.64,31.64,0,0,0,.61,5.32,27.13,27.13,0,0,0,1.57,5.1l3.54-1.8a33.62,33.62,0,0,1-1.78-5.49,30.1,30.1,0,0,1-.56-10.43,40.33,40.33,0,0,1,1-5.11l-1.38-2.71-13.58,6.9,1.47,2.92Z" transform="translate(-74 -407.39)"/><path class="cls-7" d="M269.93,627.29a7.54,7.54,0,0,0-.16,3.66,12.74,12.74,0,0,0,1.37,3.69,27.68,27.68,0,0,0,2.17,3.33,26.89,26.89,0,0,0,2.65,3,12.58,12.58,0,0,0,3.2,2.29,7.46,7.46,0,0,0,3.58.81,7.45,7.45,0,0,0,6.19-4.73,7.71,7.71,0,0,0,.16-3.67,12.61,12.61,0,0,0-1.38-3.68,26.16,26.16,0,0,0-4.82-6.31,12.61,12.61,0,0,0-3.19-2.29,7.6,7.6,0,0,0-3.58-.81,6.52,6.52,0,0,0-3.77,1.49,6.45,6.45,0,0,0-2.42,3.25Zm12.73,13.51a4.65,4.65,0,0,1-2.11-.73,10.87,10.87,0,0,1-2.18-1.77,29.48,29.48,0,0,1-2.18-2.53,27.77,27.77,0,0,1-1.86-2.75,11.8,11.8,0,0,1-1.14-2.57,4.59,4.59,0,0,1-.15-2.24,3.19,3.19,0,0,1,3.15-2.4,4.58,4.58,0,0,1,2.13.72,11.3,11.3,0,0,1,2.18,1.78,26.28,26.28,0,0,1,2.16,2.51,27.47,27.47,0,0,1,1.87,2.76,11.11,11.11,0,0,1,1.15,2.57,4.82,4.82,0,0,1,.13,2.24,3.19,3.19,0,0,1-3.15,2.41Z" transform="translate(-74 -407.39)"/><path class="cls-7" d="M283.25,616a7.46,7.46,0,0,0,.5,3.64,12.52,12.52,0,0,0,2,3.37,26.06,26.06,0,0,0,2.73,2.89,27,27,0,0,0,3.14,2.44A12.68,12.68,0,0,0,295.2,630a7.61,7.61,0,0,0,3.67.15,7.46,7.46,0,0,0,5.23-5.77,7.58,7.58,0,0,0-.5-3.64,12.52,12.52,0,0,0-2-3.37,27,27,0,0,0-2.73-2.89,26.29,26.29,0,0,0-3.15-2.44,12.5,12.5,0,0,0-3.55-1.68,7.61,7.61,0,0,0-3.67-.15,7.38,7.38,0,0,0-5.23,5.77Zm15,11a4.76,4.76,0,0,1-2.21-.32,11.15,11.15,0,0,1-2.47-1.36,29.3,29.3,0,0,1-2.59-2.09,27.18,27.18,0,0,1-2.33-2.37,11.45,11.45,0,0,1-1.59-2.32,4.82,4.82,0,0,1-.55-2.18,3.21,3.21,0,0,1,2.66-2.93,4.59,4.59,0,0,1,2.23.32,11.78,11.78,0,0,1,2.47,1.36,28.7,28.7,0,0,1,2.58,2.08,27.44,27.44,0,0,1,2.34,2.38,11.6,11.6,0,0,1,1.59,2.32,4.75,4.75,0,0,1,.53,2.18,2.91,2.91,0,0,1-.82,1.92,2.85,2.85,0,0,1-1.84,1Z" transform="translate(-74 -407.39)"/><path class="cls-7" d="M297.65,608.37l2.88-4.65L314,612l2.1-3.38L297,596.87l-1.56,2.52a3.45,3.45,0,0,1,1,1.59,4.93,4.93,0,0,1,.2,1.88,7.13,7.13,0,0,1-.49,2,12.94,12.94,0,0,1-1,2l2.45,1.51Z" transform="translate(-74 -407.39)"/></svg>