<svg id="Layer_1" data-name="Layer 1" xmlns="http://www.w3.org/2000/svg" viewBox="0 0 200 200"><defs><style>.cls-1{fill:#f18619;}.cls-2{fill:#fff;}</style></defs><circle class="cls-1" cx="100" cy="99.76" r="100"/><path class="cls-2" d="M63.17,56.31h73v51.37a5.77,5.77,0,0,1-5.76,5.77H68.94a5.78,5.78,0,0,1-5.77-5.77Z"/><path class="cls-1" d="M81.83,106a25,25,0,0,1-3.28-.23,28.13,28.13,0,0,1-3.16-.53c-1-.19-1.88-.41-2.7-.64a13.48,13.48,0,0,1-1.88-.76l1.41-6a31.38,31.38,0,0,0,3.58,1.35,20.39,20.39,0,0,0,5.8.7c3.09,0,5.31-.58,6.68-1.75a6.09,6.09,0,0,0,2-4.8A5.83,5.83,0,0,0,89.51,90,5.44,5.44,0,0,0,87.34,88a8.71,8.71,0,0,0-3.16-1.12,19.42,19.42,0,0,0-3.75-.35H78V80.78H81a15.38,15.38,0,0,0,2.7-.23,8.5,8.5,0,0,0,2.52-.94A5.82,5.82,0,0,0,88,77.8a5.28,5.28,0,0,0,.7-2.87,5,5,0,0,0-.53-2.4,4.75,4.75,0,0,0-1.4-1.64A5.32,5.32,0,0,0,84.82,70a9.38,9.38,0,0,0-2.34-.29,12.5,12.5,0,0,0-4.69.82,20.19,20.19,0,0,0-3.64,1.75L71.58,67a21,21,0,0,1,2-1.11,26.29,26.29,0,0,1,2.58-1.11,19.53,19.53,0,0,1,3.1-.82,16.84,16.84,0,0,1,3.46-.35,18.5,18.5,0,0,1,5.86.82,10.5,10.5,0,0,1,4.05,2.34A8.82,8.82,0,0,1,95,70.24a11.38,11.38,0,0,1,.82,4.4,8.42,8.42,0,0,1-1.58,5,9.91,9.91,0,0,1-4,3.4,11.33,11.33,0,0,1,5.22,3.69,10.06,10.06,0,0,1,2.11,6.61,13.33,13.33,0,0,1-.94,5,10.55,10.55,0,0,1-2.87,4A14.91,14.91,0,0,1,88.87,105,23.46,23.46,0,0,1,81.83,106Z"/><path class="cls-1" d="M128.87,84.77q0,10.24-3.76,15.75a12.61,12.61,0,0,1-20.75,0q-3.75-5.51-3.75-15.75a38.69,38.69,0,0,1,.94-9,20.91,20.91,0,0,1,2.81-6.68,13.13,13.13,0,0,1,4.46-4.1,12.47,12.47,0,0,1,5.92-1.4,11.88,11.88,0,0,1,10.37,5.5Q128.86,74.52,128.87,84.77Zm-7.33,0a47.74,47.74,0,0,0-.35-5.92A18.87,18.87,0,0,0,120,74.11,7.92,7.92,0,0,0,118,70.89a4.61,4.61,0,0,0-3.22-1.17,4.81,4.81,0,0,0-3.28,1.17,8.44,8.44,0,0,0-2.11,3.22,20.92,20.92,0,0,0-1.12,4.74,60.47,60.47,0,0,0,0,11.83,22,22,0,0,0,1.12,4.8,8.5,8.5,0,0,0,2.11,3.16,4.81,4.81,0,0,0,3.28,1.17A4.61,4.61,0,0,0,118,98.64,8,8,0,0,0,120,95.48a19.84,19.84,0,0,0,1.18-4.8A47.69,47.69,0,0,0,121.54,84.77Z"/><rect class="cls-2" x="119.31" y="33.3" width="4.95" height="9.22" rx="1.44"/><rect class="cls-2" x="75.28" y="33.3" width="4.95" height="9.22" rx="1.44"/><path class="cls-2" d="M130.36,38.53H125.7v2.55A2.88,2.88,0,0,1,122.82,44h-2.07a2.88,2.88,0,0,1-2.88-2.88V38.53H81.67v2.55A2.88,2.88,0,0,1,78.79,44H76.73a2.88,2.88,0,0,1-2.89-2.88V38.53h-4.9a5.78,5.78,0,0,0-5.77,5.77v7.75h73V44.3A5.77,5.77,0,0,0,130.36,38.53Z"/><path class="cls-2" d="M179,101.65c-3.15-1.28-6.51.78-7.51,4.62-9.49,36.56-37,62-68.41,63.33C74,170.82,46.58,151.21,32.7,120.1l7.66-3.41a3.53,3.53,0,0,0,.69-5.91L18.63,92.87a3.22,3.22,0,0,0-5.2,2.31L10,124.56a3.33,3.33,0,0,0,4.52,3.61l6.87-3.06C37.15,161.65,68.78,180.9,103,179.46c36.38-1.52,68.9-26.2,79.9-68.52C183.85,107.1,182.11,102.94,179,101.65Z"/></svg>