<?xml version="1.0" encoding="utf-8"?>
<!-- Generator: Adobe Illustrator 27.1.1, SVG Export Plug-In . SVG Version: 6.00 Build 0)  -->
<svg version="1.1" id="Layer_1" xmlns="http://www.w3.org/2000/svg" xmlns:xlink="http://www.w3.org/1999/xlink" x="0px" y="0px"
	 viewBox="0 0 253.3 125.9" style="enable-background:new 0 0 253.3 125.9;" xml:space="preserve">
<style type="text/css">
	.st0{fill:#005696;}
	.st1{fill:#005290;}
	.st2{fill:#005695;}
</style>
<g>
	<g>
		<path class="st0" d="M240.6,125.9H12.7c-7,0-12.7-5.7-12.7-12.7V12.7C0,5.7,5.7,0,12.7,0h227.9c7,0,12.7,5.7,12.7,12.7v100.5
			C253.3,120.2,247.6,125.9,240.6,125.9z M12.7,3c-5.4,0-9.7,4.4-9.7,9.7v100.5c0,5.4,4.4,9.7,9.7,9.7h227.9c5.4,0,9.7-4.4,9.7-9.7
			V12.7c0-5.4-4.4-9.7-9.7-9.7H12.7z"/>
		<g>
			<path class="st1" d="M15,114.7c-0.8,0-1.4-0.3-1.8-1.1l0,0.9h-1.4v-8.2h1.6v3.4c0.3-0.7,1-1.1,1.7-1.1c1.7,0,2.4,1.4,2.4,2.9
				C17.4,113.2,16.7,114.7,15,114.7z M14.5,109.8c-1,0-1.2,1-1.2,1.8c0,0.8,0.2,1.9,1.2,1.9c1,0,1.2-1.1,1.2-1.9
				C15.7,110.9,15.5,109.8,14.5,109.8z"/>
			<path class="st1" d="M21.3,115.2c-0.3,0.8-0.7,1.9-2.1,1.9c-0.4,0-0.7-0.1-1.1-0.1l0.1-1.1c0.2,0.1,0.4,0.1,0.6,0.1
				c0.5,0,0.9-0.6,1-1l0.1-0.3l-2-5.9h1.7l1.2,4.4l1.2-4.4h1.5L21.3,115.2z"/>
			<path class="st1" d="M29.6,114.7c-0.8,0-1.6-0.1-2.3-0.3l0.1-1.3c0.7,0.3,1.4,0.5,2.1,0.5c0.7,0,1.4-0.2,1.4-1.1
				c0-0.6-0.8-0.9-1.3-1.1l-0.8-0.3c-0.9-0.4-1.6-0.9-1.6-1.9c0-1.6,1.7-2.2,3.1-2.2c0.6,0,1.3,0.1,1.9,0.2l-0.1,1.2
				c-0.5-0.2-1.2-0.3-1.7-0.3c-0.6,0-1.5,0.2-1.5,0.9c0,0.5,0.7,0.8,1.2,1l0.8,0.3c1,0.4,1.7,0.9,1.7,2.1
				C32.6,114,31.1,114.7,29.6,114.7z"/>
			<path class="st1" d="M36.4,114.7c-1.9,0-3-1.2-3-3c0-1.9,1.2-2.9,3-2.9c1.8,0,3,1.1,3,2.9C39.4,113.5,38.2,114.7,36.4,114.7z
				 M36.4,109.8c-1,0-1.3,1-1.3,1.9c0,0.9,0.3,1.9,1.3,1.9c1,0,1.3-1,1.3-1.9C37.7,110.8,37.4,109.8,36.4,109.8z"/>
			<path class="st1" d="M44.2,114.5l0-1c-0.4,0.7-1,1.1-1.8,1.1c-1.4,0-1.9-0.8-1.9-2.1v-3.7H42v3.3c0,0.7,0.1,1.4,0.9,1.4
				c0.9,0,1.1-0.8,1.1-1.6v-3.1h1.6v4.4c0,0.4,0,0.9,0.1,1.3H44.2z"/>
			<path class="st1" d="M49.1,114.7c-1.3,0-1.6-0.8-1.6-2v-2.8h-1v-1h1v-1.2l1.6-0.5v1.7h1.3v1H49v2.8c0,0.5,0.1,0.9,0.7,0.9
				c0.2,0,0.4,0,0.6-0.1l0,1C50,114.6,49.5,114.7,49.1,114.7z"/>
			<path class="st1" d="M55,114.5v-3.3c0-0.7-0.1-1.3-1-1.3c-0.9,0-1.1,0.8-1.1,1.5v3.1h-1.6v-8.2h1.6v3.4c0.3-0.7,1-1.1,1.7-1.1
				c1.3,0,1.9,0.8,1.9,2.1v3.7H55z"/>
			<path class="st1" d="M64.5,111.8H63v2.8h-1.6V107h3.2c1.4,0,2.5,0.8,2.5,2.4C67.1,111,66,111.8,64.5,111.8z M64,108.1H63v2.5h0.6
				c0.9,0,1.8-0.1,1.8-1.3C65.4,108.5,64.8,108.1,64,108.1z"/>
			<path class="st1" d="M70.4,114.7c-1.9,0-3-1.2-3-3c0-1.9,1.2-2.9,3-2.9c1.8,0,3,1.1,3,2.9C73.3,113.5,72.2,114.7,70.4,114.7z
				 M70.4,109.8c-1,0-1.3,1-1.3,1.9c0,0.9,0.3,1.9,1.3,1.9c1,0,1.3-1,1.3-1.9C71.7,110.8,71.4,109.8,70.4,109.8z"/>
			<path class="st1" d="M74.4,114.5v-8.2H76v8.2H74.4z"/>
			<path class="st1" d="M78.6,112.1c0,1,0.7,1.6,1.7,1.6c0.5,0,1.2-0.1,1.7-0.4l0.1,1.1c-0.6,0.2-1.4,0.3-2.1,0.3
				c-1.9,0-2.9-1.1-2.9-3c0-1.7,1.1-2.9,2.8-2.9c1.8,0,2.5,1.3,2.5,3v0.4H78.6z M79.9,109.7c-0.9,0-1.2,0.9-1.2,1.6H81
				C81,110.5,80.7,109.7,79.9,109.7z"/>
		</g>
		<path class="st1" d="M80.5,113.8"/>
		<g>
			<path class="st0" d="M122.1,37.3l-6.9-9.8v9.8H109V16h6.3v9l6.5-9h7.3l-8.2,10l8.9,11.4H122.1z"/>
			<path class="st0" d="M131.6,37.3V14.3h5.9v23.1H131.6z"/>
			<path class="st0" d="M141,18.6v-4.1h5.9v4.1H141z M141,37.3V21.2h5.9v16.2H141z"/>
			<path class="st0" d="M170.6,37.3v-9.7c0-1.4-0.3-2.8-2-2.8c-1.8,0-2.2,1.8-2.2,3.4v9.1h-5.9v-9.7c0-1.4-0.3-2.8-2-2.8
				c-1.7,0-2.2,1.8-2.2,3.4v9.1h-5.9V24.7c0-1.2,0-2.3-0.1-3.5h5.6l0.1,2.7c0.9-1.9,2.8-3,5.2-3c2.3,0,4.2,1.1,4.8,3.1
				c0.8-2,3-3.1,5.1-3.1c4.2,0,5.4,2.6,5.4,6.4v10.1H170.6z"/>
			<path class="st0" d="M189.9,37.3l-0.1-2.4c-1.2,1.7-3.1,2.8-5.2,2.8c-3,0-5.6-1.4-5.6-4.7c0-4.4,4.2-5.8,8.4-5.8
				c0.8,0,1.6,0.1,2.4,0.1v-0.4c0-2.1-1.7-2.7-3.8-2.7c-1.6,0-3.5,0.4-5.1,1.3l-0.2-3.6c1.9-0.6,4.2-1,6.2-1c4.6,0,8.5,1.2,8.5,6.5
				v6c0,2,0,3,0.1,4H189.9z M189.9,29.9h-0.7c-1.8,0-4.7,0.3-4.7,2.5c0,1.4,1.2,1.9,2.3,1.9c2.2,0,3.1-1.8,3.1-3.7V29.9z"/>
			<path class="st0" d="M205.2,37.7c-3.9,0-5.2-2.3-5.2-6v-6.9h-2.8v-3.7h2.8v-3l5.9-1.9v4.9h3.5v3.7H206v6.5c0,1.3,0.4,2.3,1.8,2.3
				c0.6,0,1.2-0.1,1.7-0.4l0.2,3.7C208.3,37.4,206.7,37.7,205.2,37.7z"/>
			<path class="st0" d="M119,67.3V58c0-1.5-0.2-3.1-2-3.1c-1.9,0-2.4,1.8-2.4,3.4v9.1h-5.9V54.7c0-1.2,0-2.3-0.1-3.5h5.6l0.1,2.7
				c1-2,3.1-3,5.2-3c3.7,0,5.5,2.1,5.5,5.7v10.8H119z"/>
			<path class="st0" d="M133.4,60.7c0,2.5,2.3,3.6,4.5,3.6c1.6,0,3.6-0.3,5.1-1.1l0.2,3.5c-2,0.7-4.5,0.9-6.6,0.9
				c-5.5,0-9-2.8-9-8.5c0-5.3,3.7-8.3,8.6-8.3c5.6,0,7.8,3.6,7.8,8.9v1H133.4z M136.2,54c-2.2,0-2.8,2.2-2.8,3.9h5.4
				C138.8,56.2,138.3,54,136.2,54z"/>
			<path class="st0" d="M157.3,67.3l-0.1-2.7c-1,2-3.1,3-5.2,3c-3.7,0-5.5-2.1-5.5-5.7V51.2h5.9v9.3c0,1.5,0.2,3.1,2,3.1
				c1.9,0,2.4-1.8,2.4-3.4v-9h5.9v12.6c0,1.2,0,2.4,0.2,3.5H157.3z"/>
			<path class="st0" d="M172.8,67.7c-3.9,0-5.2-2.3-5.2-6v-6.9h-2.8v-3.7h2.8v-3l5.9-1.9v4.9h3.5v3.7h-3.5v6.5
				c0,1.3,0.4,2.3,1.8,2.3c0.6,0,1.2-0.1,1.7-0.4l0.2,3.7C175.8,67.4,174.2,67.7,172.8,67.7z"/>
			<path class="st0" d="M190.9,56.1c-0.4-0.2-1-0.2-1.4-0.2c-2.8,0-4,2.3-4,4.8v6.7h-5.9V54.7c0-1.2,0-2.3-0.1-3.5h5.6l0.1,3.2
				c0.8-1.9,2.4-3.6,4.7-3.6c0.4,0,0.8,0,1.2,0.2L190.9,56.1z"/>
			<path class="st0" d="M202.7,67.3l-0.1-2.4c-1.2,1.7-3.1,2.8-5.2,2.8c-3,0-5.6-1.4-5.6-4.7c0-4.4,4.2-5.8,8.4-5.8
				c0.8,0,1.6,0.1,2.4,0.1v-0.4c0-2.1-1.7-2.7-3.8-2.7c-1.6,0-3.5,0.4-5.1,1.3l-0.2-3.6c1.9-0.6,4.2-1,6.2-1c4.6,0,8.5,1.2,8.5,6.5
				v6c0,2,0,3,0.1,4H202.7z M202.7,59.9H202c-1.8,0-4.7,0.3-4.7,2.5c0,1.4,1.2,1.9,2.3,1.9c2.2,0,3.1-1.8,3.1-3.7V59.9z"/>
			<path class="st0" d="M211.6,67.3V44.3h5.9v23.1H211.6z"/>
			<path class="st0" d="M227.5,67.7c-3.9,0-5.2-2.3-5.2-6v-6.9h-2.8v-3.7h2.8v-3l5.9-1.9v4.9h3.5v3.7h-3.5v6.5
				c0,1.3,0.4,2.3,1.8,2.3c0.6,0,1.2-0.1,1.7-0.4L232,67C230.6,67.4,229,67.7,227.5,67.7z"/>
			<path class="st0" d="M115.2,80.1v4.8h9.1V89h-9.1v8.4h-6.3V76h15.8v4.1H115.2z"/>
			<path class="st0" d="M134.8,97.7c-5.6,0-9.1-2.9-9.1-8.5c0-5.7,4-8.3,9.1-8.3c5.3,0,9.1,2.6,9.1,8.3
				C143.9,94.8,140.3,97.7,134.8,97.7z M129.2,78.6v-4.1h4.4v4.1H129.2z M134.8,84.6c-2.2,0-2.8,2.6-2.8,4.6c0,2.3,0.6,4.7,2.8,4.7
				c2.3,0,2.8-2.4,2.8-4.7C137.6,87.2,137.2,84.6,134.8,84.6z M136.2,78.6v-4.1h4.4v4.1H136.2z"/>
			<path class="st0" d="M157.9,86.1c-0.4-0.2-1-0.2-1.4-0.2c-2.8,0-4,2.3-4,4.8v6.7h-5.9V84.7c0-1.2,0-2.3-0.1-3.5h5.6l0.1,3.2
				c0.8-1.9,2.4-3.6,4.7-3.6c0.4,0,0.8,0,1.2,0.2L157.9,86.1z"/>
			<path class="st0" d="M164.7,90.7c0,2.5,2.3,3.6,4.5,3.6c1.6,0,3.6-0.3,5.1-1.1l0.2,3.5c-2,0.7-4.5,0.9-6.6,0.9
				c-5.5,0-9-2.8-9-8.5c0-5.3,3.7-8.3,8.6-8.3c5.6,0,7.8,3.6,7.8,8.9v1H164.7z M167.6,84c-2.2,0-2.8,2.2-2.8,3.9h5.4
				C170.1,86.2,169.7,84,167.6,84z"/>
			<path class="st0" d="M184.4,97.7c-3.9,0-5.2-2.3-5.2-6v-6.9h-2.8v-3.7h2.8v-3l5.9-1.9v4.9h3.5v3.7h-3.5v6.5
				c0,1.3,0.4,2.3,1.8,2.3c0.6,0,1.2-0.1,1.7-0.4l0.2,3.7C187.5,97.4,185.9,97.7,184.4,97.7z"/>
			<path class="st0" d="M201.1,97.3l-0.1-2.4c-1.2,1.7-3.1,2.8-5.2,2.8c-3,0-5.6-1.4-5.6-4.7c0-4.4,4.2-5.8,8.4-5.8
				c0.8,0,1.6,0.1,2.4,0.1v-0.4c0-2.1-1.7-2.7-3.8-2.7c-1.6,0-3.5,0.4-5.1,1.3l-0.2-3.6c1.9-0.6,4.2-1,6.2-1c4.6,0,8.5,1.2,8.5,6.5
				v6c0,2,0,3,0.1,4H201.1z M201.1,89.9h-0.7c-1.8,0-4.7,0.3-4.7,2.5c0,1.4,1.2,1.9,2.3,1.9c2.2,0,3.1-1.8,3.1-3.7V89.9z"/>
			<path class="st0" d="M217.3,104.6c-2.3,0-4.6-0.2-6.8-0.9l0.2-4.1c1.5,0.8,3.3,1.2,5.1,1.2c3.3,0,5.1-1.6,5.1-4.7v-1.5
				c-1.2,1.7-3,2.7-5.1,2.7c-4.7,0-6.6-4-6.6-8.2c0-4.3,1.9-8.3,6.6-8.3c2.2,0,4.2,0.9,5.2,2.9v-2.6h5.8v14.9
				C226.7,102,222.9,104.6,217.3,104.6z M218.2,84.8c-2.4,0-2.7,2.6-2.7,4.4c0,1.8,0.4,4.2,2.7,4.2s2.8-2.4,2.8-4.2
				C221,87.4,220.5,84.8,218.2,84.8z"/>
		</g>
	</g>
	<g>
		<path class="st2" d="M27.8,89.6c-0.1-0.3-0.2-0.5-0.4-0.7c-0.2-0.2-0.4-0.2-0.7-0.2S26.1,88.8,26,89c-0.2,0.2-0.3,0.4-0.4,0.7
			c-0.1,0.3-0.1,0.6-0.2,1c0,0.4,0,0.8,0,1.3c0,0.4,0,0.8,0,1.2c0,0.4,0.1,0.7,0.2,1s0.2,0.5,0.4,0.7c0.2,0.2,0.4,0.3,0.7,0.3
			s0.5-0.1,0.7-0.3c0.2-0.2,0.3-0.4,0.4-0.7c0.1-0.3,0.1-0.6,0.2-1c0-0.4,0-0.8,0-1.2c0-0.5,0-0.9,0-1.3
			C27.9,90.3,27.8,89.9,27.8,89.6z"/>
		<path class="st2" d="M54.4,14.2c-23.9,0-43.2,19.3-43.2,43.2v43.2h43.2c23.9,0,43.2-19.3,43.2-43.2V14.2H54.4z M21.4,96.6h-7.2
			v-1.9l1.5-1.2c0.2-0.2,0.5-0.4,0.9-0.6c0.3-0.2,0.7-0.5,1-0.8c0.3-0.3,0.6-0.6,0.8-0.9c0.2-0.3,0.3-0.6,0.3-1
			c0-0.3-0.1-0.5-0.2-0.6s-0.2-0.3-0.4-0.4c-0.2-0.1-0.4-0.2-0.6-0.2c-0.2,0-0.4-0.1-0.7-0.1c-0.4,0-0.8,0.1-1.2,0.2
			c-0.4,0.1-0.8,0.3-1.2,0.4l-0.1-1.9c0.5-0.2,1-0.3,1.5-0.4c0.5-0.1,1-0.2,1.6-0.2c0.5,0,0.9,0,1.4,0.1c0.5,0.1,0.9,0.2,1.2,0.5
			s0.7,0.5,0.9,0.9c0.2,0.4,0.3,0.8,0.3,1.4c0,0.5-0.1,0.9-0.3,1.3c-0.2,0.4-0.5,0.8-0.8,1.1c-0.3,0.3-0.7,0.7-1.1,1
			c-0.4,0.3-0.8,0.6-1.1,0.8l-0.7,0.7h4.1V96.6z M30.4,93.7c-0.1,0.6-0.4,1.1-0.7,1.5c-0.3,0.4-0.7,0.8-1.2,1.1s-1.1,0.4-1.9,0.4
			s-1.4-0.1-1.9-0.4s-0.9-0.6-1.2-1c-0.3-0.4-0.5-1-0.7-1.5s-0.2-1.2-0.2-1.9s0.1-1.3,0.2-1.9c0.1-0.6,0.4-1.1,0.7-1.5
			c0.3-0.4,0.7-0.8,1.2-1c0.5-0.3,1.1-0.4,1.8-0.4s1.3,0.1,1.8,0.4c0.5,0.3,0.9,0.6,1.2,1.1c0.3,0.4,0.5,1,0.7,1.5s0.2,1.2,0.2,1.8
			S30.6,93.2,30.4,93.7z M38.8,96.6h-7.2v-1.9l1.5-1.2c0.2-0.2,0.5-0.4,0.9-0.6c0.3-0.2,0.7-0.5,1-0.8c0.3-0.3,0.6-0.6,0.8-0.9
			c0.2-0.3,0.3-0.6,0.3-1c0-0.3-0.1-0.5-0.2-0.6s-0.2-0.3-0.4-0.4C35.4,89.1,35.2,89,35,89c-0.2,0-0.4-0.1-0.7-0.1
			c-0.4,0-0.8,0.1-1.2,0.2c-0.4,0.1-0.8,0.3-1.2,0.4l-0.1-1.9c0.5-0.2,1-0.3,1.5-0.4c0.5-0.1,1-0.2,1.6-0.2c0.5,0,0.9,0,1.4,0.1
			c0.5,0.1,0.9,0.2,1.2,0.5s0.7,0.5,0.9,0.9c0.2,0.4,0.3,0.8,0.3,1.4c0,0.5-0.1,0.9-0.3,1.3c-0.2,0.4-0.5,0.8-0.8,1.1
			c-0.3,0.3-0.7,0.7-1.1,1c-0.4,0.3-0.8,0.6-1.1,0.8l-0.7,0.7h4.1V96.6z M47.7,96.6h-7.2v-1.9l1.5-1.2c0.2-0.2,0.5-0.4,0.9-0.6
			c0.3-0.2,0.7-0.5,1-0.8c0.3-0.3,0.6-0.6,0.8-0.9c0.2-0.3,0.3-0.6,0.3-1c0-0.3-0.1-0.5-0.2-0.6s-0.2-0.3-0.4-0.4
			C44.2,89.1,44,89,43.8,89c-0.2,0-0.4-0.1-0.7-0.1c-0.4,0-0.8,0.1-1.2,0.2c-0.4,0.1-0.8,0.3-1.2,0.4l-0.1-1.9
			c0.5-0.2,1-0.3,1.5-0.4c0.5-0.1,1-0.2,1.6-0.2c0.5,0,0.9,0,1.4,0.1c0.5,0.1,0.9,0.2,1.2,0.5s0.7,0.5,0.9,0.9
			c0.2,0.4,0.3,0.8,0.3,1.4c0,0.5-0.1,0.9-0.3,1.3c-0.2,0.4-0.5,0.8-0.8,1.1c-0.3,0.3-0.7,0.7-1.1,1c-0.4,0.3-0.8,0.6-1.1,0.8
			l-0.7,0.7h4.1V96.6z M65.6,83.8c-2.1-19.5-5.5-23.4-8.3-26.5c-0.3-0.4-1.2-0.8-1.1-1.3c1.9-9,15.1-7.7,15.1-7.7s1.1-1.1-3.7-1.8
			c-2.5-0.4-6.6-0.8-8.7-1.3c-5.6-1.4-8-3.9-12.7-0.8c-4,2.7-3.1,6.8-5.5,9.9c-5.4,6.8-7.5,17.1-7.8,22.8c-4.6-5-7.4-11.7-7.4-19
			c0-15.6,12.7-28.3,28.3-28.3c15.6,0,28.3,12.7,28.3,28.3C82.1,69.5,75.3,79.3,65.6,83.8z"/>
	</g>
</g>
</svg>
