<svg width="32" height="33" viewBox="0 0 32 33" fill="none" xmlns="http://www.w3.org/2000/svg">
<path d="M16 0.5C7.168 0.5 0 7.668 0 16.5C0 25.332 7.168 32.5 16 32.5C24.832 32.5 32 25.332 32 16.5C32 7.668 24.832 0.5 16 0.5ZM16 6.55867C17.1947 6.55867 18.1547 7.51867 18.1547 8.71333C18.1547 9.908 17.1947 10.868 16 10.868C14.8053 10.868 13.8453 9.908 13.8453 8.71333C13.8453 7.51867 14.8053 6.55867 16 6.55867ZM22.9973 13.556L18.2613 14.8573C17.8987 14.964 17.6427 15.3053 17.6427 15.6893V17.2467C17.6427 18.0147 17.8133 18.7613 18.1547 19.444L20.6933 24.7133V24.7347C20.7573 24.884 20.8 25.0547 20.8 25.204C20.8 25.6307 20.5653 26.036 20.1387 26.228C19.5627 26.5053 18.88 26.2707 18.6027 25.6947L16 20.3827L13.4187 25.6947C13.2267 26.1 12.8 26.356 12.3733 26.356C12.2027 26.356 12.032 26.3133 11.8827 26.2493C11.8827 26.2493 11.8827 26.2493 11.8613 26.2493C11.2853 25.972 11.0507 25.2893 11.328 24.7347L13.8667 19.4653C14.208 18.7827 14.3787 18.036 14.3787 17.268V15.7107C14.3787 15.3267 14.1227 14.9853 13.7387 14.8787L9.00267 13.5773C8.49067 13.428 8.17067 12.98 8.17067 12.468C8.17067 12.3613 8.192 12.2547 8.21333 12.1693C8.384 11.5507 9.024 11.2093 9.64267 11.38L14.848 12.8307C15.616 13.0653 16.4267 13.0653 17.1947 12.8307L22.4 11.38C22.5067 11.3587 22.6133 11.3373 22.72 11.3373C23.232 11.3373 23.68 11.6573 23.8293 12.1693C23.9573 12.7667 23.5947 13.3853 22.9973 13.556Z" fill="black"/>
</svg>
