<svg width="20" height="20" viewBox="0 0 20 20" fill="none" xmlns="http://www.w3.org/2000/svg">
<g clip-path="url(#clip0_71_449)">
<circle cx="10" cy="10" r="9.5" fill="#ED1B34" stroke="#ED1B34"/>
<path d="M10.0001 1C5.03206 1 1.00006 5.032 1.00006 10C1.00006 14.968 5.03206 19 10.0001 19C14.9681 19 19.0001 14.968 19.0001 10C19.0001 5.032 14.9681 1 10.0001 1ZM10.0001 4.408C10.6721 4.408 11.2121 4.948 11.2121 5.62C11.2121 6.292 10.6721 6.832 10.0001 6.832C9.32806 6.832 8.78806 6.292 8.78806 5.62C8.78806 4.948 9.32806 4.408 10.0001 4.408ZM13.9361 8.344L11.2721 9.076C11.0681 9.136 10.9241 9.328 10.9241 9.544V10.42C10.9241 10.852 11.0201 11.272 11.2121 11.656L12.6401 14.62V14.632C12.6761 14.716 12.7001 14.812 12.7001 14.896C12.7001 15.136 12.5681 15.364 12.3281 15.472C12.0041 15.628 11.6201 15.496 11.4641 15.172L10.0001 12.184L8.54806 15.172C8.44006 15.4 8.20006 15.544 7.96006 15.544C7.86406 15.544 7.76806 15.52 7.68406 15.484C7.68406 15.484 7.68406 15.484 7.67206 15.484C7.34806 15.328 7.21606 14.944 7.37206 14.632L8.80006 11.668C8.99206 11.284 9.08806 10.864 9.08806 10.432V9.556C9.08806 9.34 8.94406 9.148 8.72806 9.088L6.06406 8.356C5.77606 8.272 5.59606 8.02 5.59606 7.732C5.59606 7.672 5.60806 7.612 5.62006 7.564C5.71606 7.216 6.07606 7.024 6.42406 7.12L9.35206 7.936C9.78406 8.068 10.2401 8.068 10.6721 7.936L13.6001 7.12C13.6601 7.108 13.7201 7.096 13.7801 7.096C14.0681 7.096 14.3201 7.276 14.4041 7.564C14.4761 7.9 14.2721 8.248 13.9361 8.344Z" fill="white"/>
</g>
<defs>
<clipPath id="clip0_71_449">
<rect width="20" height="20" fill="white"/>
</clipPath>
</defs>
</svg>
