<?xml version="1.0" encoding="utf-8"?>
<!-- Generator: Adobe Illustrator 23.0.3, SVG Export Plug-In . SVG Version: 6.00 Build 0)  -->
<svg version="1.1" id="Layer_1" xmlns="http://www.w3.org/2000/svg" xmlns:xlink="http://www.w3.org/1999/xlink" x="0px" y="0px"
	 viewBox="0 0 12 17" style="enable-background:new 0 0 12 17;" xml:space="preserve">
<style type="text/css">
	.st0{fill:#ED1B34;}
</style>
<g>
	<path class="st0" d="M10.8,0.3H1.2c-1,0-1.1,0.7-1.1,0.9v14.2c0,0.5,0.4,1.3,1.1,1.3h9.5c0.7,0,1.1-0.7,1.1-1.3V1.2
		C11.9,1,11.8,0.3,10.8,0.3z M10.5,1.7l0,1.3H1.6V1.7H10.5z M10.5,4.4l0,6.6H1.6V4.4C1.6,4.4,10.5,4.4,10.5,4.4z M1.6,15.3v-2.9h8.9
		l0,2.9C10.5,15.3,1.6,15.3,1.6,15.3z"/>
	<circle class="st0" cx="6" cy="13.7" r="0.8"/>
</g>
</svg>
