<?xml version="1.0" encoding="utf-8"?>
<!-- Generator: Adobe Illustrator 23.0.3, SVG Export Plug-In . SVG Version: 6.00 Build 0)  -->
<svg version="1.1" id="Layer_1" xmlns="http://www.w3.org/2000/svg" xmlns:xlink="http://www.w3.org/1999/xlink" x="0px" y="0px"
	 viewBox="0 0 20 20" style="enable-background:new 0 0 20 20;" xml:space="preserve">
<style type="text/css">
	.st0{fill:#ED1B34;}
</style>
<g>
	<path class="st0" d="M18.5,2.1c-0.2-0.2-0.5-0.2-0.8-0.2H2.3c-0.3-0.1-0.6,0-0.8,0.2C1.3,2.2,1.2,2.5,1.2,2.7v10.9
		c0,0.7,0.5,1.2,1.1,1.3h4.3L9,17.8c0.1,0.2,0.4,0.3,0.6,0.3c0.2,0,0.4-0.1,0.5-0.2l2.4-3h5c0.7-0.1,1.2-0.6,1.1-1.3V2.7
		C18.7,2.5,18.6,2.2,18.5,2.1z M17.3,13.4h-5c-0.2,0-0.4,0.1-0.5,0.2c-0.1,0-0.2,0.1-0.3,0.2l-1.9,2.3l-1.9-2.4
		c-0.1-0.1-0.3-0.2-0.4-0.2c-0.1,0-0.2,0-0.3,0H2.8v-10h14.5V13.4z"/>
</g>
</svg>
