<?xml version="1.0" encoding="utf-8"?>
<!-- Generator: Adobe Illustrator 23.0.6, SVG Export Plug-In . SVG Version: 6.00 Build 0)  -->
<svg version="1.1" id="Layer_1" xmlns="http://www.w3.org/2000/svg" xmlns:xlink="http://www.w3.org/1999/xlink" x="0px" y="0px"
	 viewBox="0 0 20 20" style="enable-background:new 0 0 20 20;" xml:space="preserve">
<style type="text/css">
	.st0{fill:#ED1B34;}
</style>
<g>
	<path class="st0" d="M17.8,1.6c-0.1-0.2-0.4-0.3-0.6-0.3H6.3C5.6,1.3,5.1,1.8,5,2.4v4.1h1.4V2.9h10v14.5H6.5v-3.8H5v4
		c0.1,0.7,0.6,1.2,1.3,1.1h10.9c0.2,0.1,0.5,0,0.6-0.1c0.2-0.2,0.2-0.5,0.2-0.8V2.4C18.1,2.1,18,1.8,17.8,1.6z"/>
</g>
<g>
	<g>
		<path class="st0" d="M13,8.5l-3-2.6c-0.3-0.3-0.8-0.3-1.1,0c-0.3,0.3-0.3,0.7,0,1l3,2.6c0.3,0.3,0.3,0.7,0,1c0,0,0,0,0,0l-3,2.7
			c-0.3,0.3-0.3,0.7,0,1c0.2,0.1,0.4,0.2,0.6,0.2c0.2,0,0.4-0.1,0.6-0.2l3-2.7C13.9,10.6,13.9,9.3,13,8.5z"/>
	</g>
</g>
<path class="st0" d="M2.4,10.7h9.1c0.5,0,0.9-0.3,0.9-0.7c0-0.4-0.4-0.7-0.9-0.7H2.4"/>
<path class="st0" d="M9.5,9.3H2c-0.4,0-0.7,0.3-0.7,0.7c0,0.4,0.3,0.7,0.7,0.7h7.5"/>
</svg>
