<?xml version="1.0" encoding="utf-8"?>
<!-- Generator: Adobe Illustrator 23.0.3, SVG Export Plug-In . SVG Version: 6.00 Build 0)  -->
<svg version="1.1" id="Layer_1" xmlns="http://www.w3.org/2000/svg" xmlns:xlink="http://www.w3.org/1999/xlink" x="0px" y="0px"
	 viewBox="0 0 20 20" style="enable-background:new 0 0 20 20;" xml:space="preserve">
<style type="text/css">
	.st0{fill:#ED1B34;}
</style>
<g>
	<path class="st0" d="M14,1.7c-1.6,0-3.1,0.8-4,2.1C9.1,2.5,7.6,1.7,6,1.7C3.3,1.8,1.1,4,1.2,6.7c0,0.3,0,0.7,0.1,1
		c0.1,0.5,0.3,1.1,0.5,1.5c0,0.1,0.1,0.2,0.2,0.3l0.2,0.2l0.1,0.2L2.4,10l6.8,7.9c0.4,0.5,1.1,0.5,1.6,0.1c0,0,0.1-0.1,0.1-0.1
		l6.7-7.9l0.1-0.1l0.1-0.1L18,9.5c0.1-0.1,0.1-0.2,0.1-0.2c0.3-0.5,0.5-1,0.6-1.6c0.1-0.3,0.1-0.7,0.1-1C18.9,4,16.7,1.8,14,1.7
		C14,1.7,14,1.7,14,1.7z M17.2,6.7c0,0.2,0,0.5-0.1,0.7c-0.1,0.5-0.3,0.9-0.5,1.3L10,16.4L3.4,8.7C3.1,8.3,2.9,7.8,2.9,7.4
		c0-0.2-0.1-0.5-0.1-0.7c0-1.8,1.4-3.3,3.2-3.4c1.5,0,2.8,1,3.1,2.4c0.1,0.3,0.4,0.6,0.8,0.6h0.2c0.4,0,0.7-0.2,0.8-0.6
		c0.4-1.4,1.7-2.4,3.1-2.4C15.8,3.4,17.2,4.9,17.2,6.7L17.2,6.7z"/>
</g>
</svg>
