<?xml version="1.0" encoding="utf-8"?>
<!-- Generator: Adobe Illustrator 23.0.3, SVG Export Plug-In . SVG Version: 6.00 Build 0)  -->
<svg version="1.1" id="Layer_1" xmlns="http://www.w3.org/2000/svg" xmlns:xlink="http://www.w3.org/1999/xlink" x="0px" y="0px"
	 viewBox="0 0 20 20" style="enable-background:new 0 0 20 20;" xml:space="preserve">
<style type="text/css">
	.st0{fill:#ED1B34;}
</style>
<g>
	<path class="st0" d="M7,14.7c-1.3,0-2.3,1-2.3,2.3c0,1.3,1,2.3,2.3,2.3c1.3,0,2.3-1,2.3-2.3c0,0,0,0,0,0C9.3,15.8,8.2,14.8,7,14.7z
		 M7,17.8c-0.5,0-0.8-0.4-0.8-0.8c0-0.5,0.4-0.8,0.8-0.8c0.4,0,0.8,0.3,0.8,0.8C7.8,17.5,7.5,17.8,7,17.8C7,17.8,7,17.8,7,17.8z
		 M15.5,17c0-1.3-1.1-2.2-2.3-2.2s-2.2,1.1-2.2,2.3c0,1.3,1.1,2.2,2.3,2.2C14.5,19.3,15.5,18.3,15.5,17C15.5,17,15.5,17,15.5,17z
		 M14,17.1c-0.1,0.4-0.5,0.8-0.9,0.7s-0.8-0.5-0.7-0.9s0.5-0.8,0.9-0.7c0,0,0,0,0,0c0.4,0,0.7,0.4,0.7,0.8C14,17,14,17.1,14,17.1
		L14,17.1z M18.3,3c-0.2-0.3-0.6-0.4-0.9-0.4H3.5L2.9,1.1c-0.2-0.4-0.6-0.5-1-0.4C1.6,0.9,1.4,1.3,1.5,1.7l0.7,1.6
		c-0.1,0.2-0.1,0.4,0,0.6l2.2,7c0,0.1,0.1,0.2,0.1,0.3l-1.1,3.1c-0.1,0.4,0.1,0.8,0.4,0.9c0.4,0.1,0.8-0.1,0.9-0.4l1-2.8h9.4
		c0.6-0.1,1-0.5,1.1-1l2.2-7.1C18.5,3.5,18.5,3.2,18.3,3z M14.8,10.4H5.9L4,4.1h12.7L14.8,10.4z"/>
</g>
</svg>
