<?xml version="1.0" encoding="utf-8"?>
<!-- Generator: Adobe Illustrator 23.0.3, SVG Export Plug-In . SVG Version: 6.00 Build 0)  -->
<svg version="1.1" id="Layer_1" xmlns="http://www.w3.org/2000/svg" xmlns:xlink="http://www.w3.org/1999/xlink" x="0px" y="0px"
	 viewBox="0 0 20 20" style="enable-background:new 0 0 20 20;" xml:space="preserve">
<style type="text/css">
	.st0{fill:#ED1B34;}
</style>
<g>
	<path class="st0" d="M10,6.4c-2.3,0.1-4,1.9-4,4.2c0,2.3,1.7,4.1,4,4.2c2.3-0.1,4-1.9,4-4.2C14,8.4,12.3,6.5,10,6.4z M10,13.2
		c-1.4,0-2.5-1.2-2.4-2.6c0,0,0,0,0,0C7.5,9.2,8.6,8,10,8c1.4,0,2.5,1.2,2.4,2.6c0,0,0,0,0,0C12.5,12,11.4,13.2,10,13.2z"/>
	<path class="st0" d="M18.5,4.7h-3.9l-1-2c-0.1-0.3-0.4-0.5-0.7-0.5H7.2c-0.3,0-0.6,0.2-0.7,0.5l-1,2h-4C1,4.7,0.7,5,0.7,5.5l0,0V17
		c0,0.4,0.4,0.8,0.8,0.8h17c0.4,0,0.8-0.4,0.8-0.8V5.5C19.3,5,18.9,4.7,18.5,4.7z M17.7,16.2H2.3V6.3h3.8c0.2,0,0.4-0.2,0.6-0.3
		l0.1-0.1l1-2h4.7l1,2c0.1,0.3,0.4,0.5,0.7,0.4h3.6L17.7,16.2z"/>
</g>
</svg>
