<?xml version="1.0" encoding="utf-8"?>
<!-- Generator: Adobe Illustrator 23.0.3, SVG Export Plug-In . SVG Version: 6.00 Build 0)  -->
<svg version="1.1" id="Layer_1" xmlns="http://www.w3.org/2000/svg" xmlns:xlink="http://www.w3.org/1999/xlink" x="0px" y="0px"
	 viewBox="0 0 20 20" style="enable-background:new 0 0 20 20;" xml:space="preserve">
<style type="text/css">
	.st0{fill:#ED1B34;}
</style>
<g>
	<path class="st0" d="M17.6,7.7l-7-6.9c-0.3-0.3-0.8-0.3-1.1,0l-7,6.7C2.3,7.6,2.3,7.8,2.2,7.9v10.4c0,0.6,0.5,1.1,1.1,1.1
		c0,0,0,0,0,0h5.1V14h3.1v5.3h5.2c0.6,0,1.1-0.5,1.1-1.1c0,0,0,0,0,0V8.4C17.8,8.2,17.8,7.9,17.6,7.7z M16.2,17.7h-3.1v-4.5
		c0-0.4-0.4-0.8-0.8-0.8l0,0H7.7c-0.4,0-0.8,0.4-0.8,0.8l0,0v4.6H3.8V8.4L10,2.5l6.2,6.1L16.2,17.7z"/>
</g>
</svg>
