<?xml version="1.0" encoding="utf-8"?>
<!-- Generator: Adobe Illustrator 23.0.3, SVG Export Plug-In . SVG Version: 6.00 Build 0)  -->
<svg version="1.1" id="Layer_1" xmlns="http://www.w3.org/2000/svg" xmlns:xlink="http://www.w3.org/1999/xlink" x="0px" y="0px"
	 viewBox="0 0 30 21.1" style="enable-background:new 0 0 30 21.1;" xml:space="preserve">
<style type="text/css">
	.st0{fill:#FFFFFF;}
	.st1{fill:#E52C26;}
</style>
<g>
	<path id="cbTriangle_1_" class="st0" d="M11.9,14.4l8.1-4.2L11.9,6C11.9,6,11.9,14.4,11.9,14.4z"/>
	<path id="cbLozenge_2_" class="st1" d="M29.7,4.6c0,0-0.3-2.1-1.2-3c-1.1-1.2-2.4-1.2-3-1.3C21.3,0,15,0,15,0h0c0,0-6.3,0-10.5,0.3
		c-0.6,0.1-1.9,0.1-3,1.3c-0.9,0.9-1.2,3-1.2,3S0,7,0,9.4v2.3c0,2.4,0.3,4.9,0.3,4.9s0.3,2.1,1.2,3c1.1,1.2,2.6,1.2,3.3,1.3
		C7.2,21,15,21.1,15,21.1s6.3,0,10.5-0.3c0.6-0.1,1.9-0.1,3-1.3c0.9-0.9,1.2-3,1.2-3s0.3-2.4,0.3-4.9V9.4C30,7,29.7,4.6,29.7,4.6
		L29.7,4.6z M11.9,14.4l0-8.4l8.1,4.2L11.9,14.4z"/>
</g>
</svg>
