<svg width="21" height="16" viewBox="0 0 21 16" fill="none" xmlns="http://www.w3.org/2000/svg">
<path d="M20.347 3.19738C19.9109 2.61604 19.4749 2.0347 18.8936 1.59869C17.8763 0.581342 16.4229 0 14.9695 0C13.5162 0 12.0628 0.581342 10.9002 1.59869C10.6095 1.88936 10.4641 2.0347 10.1735 2.32537C10.0281 2.0347 9.73747 1.88936 9.4468 1.59869C8.42945 0.581342 6.9761 0 5.37741 0C3.92406 0 2.4707 0.581342 1.45335 1.59869C0.872012 2.0347 0.436006 2.61604 0.145335 3.19738L0 3.63339V15.4056L1.45335 15.6962C1.74402 15.2602 2.0347 14.8242 2.4707 14.3882C3.19738 13.6615 4.36006 13.2255 5.37741 13.2255C6.54009 13.2255 7.55744 13.6615 8.42945 14.5335C8.72012 14.8242 9.01079 15.1149 9.30147 15.4056L9.4468 15.6962C9.73747 15.9869 10.1735 16.1322 10.4641 15.8416C10.6095 15.8416 10.6095 15.6962 10.7548 15.5509C11.0455 15.1149 11.3362 14.6789 11.7722 14.2429C12.6442 13.5162 13.6615 13.0802 14.8242 13.0802C15.9869 13.0802 17.0042 13.5162 17.8763 14.3882C18.1669 14.6789 18.4576 14.9695 18.7483 15.2602L18.8936 15.5509L20.347 15.2602V3.34271V3.19738ZM9.4468 13.2255C8.28412 12.3535 6.9761 11.7722 5.52275 11.7722C4.06939 11.7722 2.61604 12.2082 1.59869 13.2255V3.77872C1.88936 3.34271 2.18003 2.90671 2.61604 2.61604C3.19738 1.88936 4.21473 1.45335 5.37741 1.45335C6.54009 1.45335 7.55744 1.88936 8.42945 2.76137C8.72012 3.05204 9.01079 3.34271 9.15613 3.63339L9.30147 3.92406L9.4468 13.2255ZM18.8936 13.2255C17.7309 12.2082 16.2776 11.7722 14.8242 11.7722C13.3709 11.7722 11.9175 12.2082 10.9002 13.2255V3.77872C11.1908 3.34271 11.4815 2.90671 11.9175 2.61604C12.7895 1.88936 13.8069 1.45335 14.8242 1.45335C15.9869 1.45335 17.0042 1.88936 17.8763 2.76137C18.1669 3.05204 18.4576 3.34271 18.7483 3.63339L18.8936 3.77872V13.2255Z" fill="#ED1B34"/>
</svg>
