<svg width="19" height="19" viewBox="0 0 19 19" fill="none" xmlns="http://www.w3.org/2000/svg">
<path d="M9.5 0C4.23846 0 0 4.23846 0 9.5C0 14.7615 4.23846 19 9.5 19C14.7615 19 19 14.7615 19 9.5C19 4.23846 14.7615 0 9.5 0ZM8.47692 16.9538C4.67692 16.5154 1.9 13.3 1.75385 9.5C1.75385 8.91538 1.9 8.33077 1.9 7.74615L6.43077 12.2769V13.1538C6.43077 14.1769 7.30769 15.0538 8.33077 15.0538L8.47692 16.9538ZM15.0538 14.6154C14.7615 13.8846 14.0308 13.3 13.3 13.3H12.4231V10.3769C12.4231 9.93846 12.1308 9.5 11.5462 9.35385H11.4H5.7V7.6H7.6C8.03846 7.6 8.47692 7.30769 8.62308 6.72308V6.57692V4.67692H10.5231C11.5462 4.67692 12.4231 3.8 12.4231 2.92308V2.48462C15.3462 3.65385 17.1 6.43077 17.1 9.5C17.1 11.4 16.3692 13.1538 15.0538 14.6154Z" fill="#ED1B34"/>
</svg>
