<svg width="18" height="18" viewBox="0 0 18 18" fill="none" xmlns="http://www.w3.org/2000/svg">
<path d="M11.1393 9.00003L17.5569 2.58237C18.1477 1.99162 18.1477 1.03382 17.5569 0.44315C16.9662 -0.147604 16.0085 -0.147604 15.4177 0.44315L8.99997 6.8609L2.58222 0.443065C1.99147 -0.147688 1.03376 -0.147688 0.443002 0.443065C-0.147667 1.03382 -0.147667 1.99162 0.443002 2.58229L6.86075 8.99995L0.443002 15.4177C-0.147667 16.0084 -0.147667 16.9662 0.443002 17.5569C1.03376 18.1477 1.99147 18.1477 2.58222 17.5569L8.99997 11.1392L15.4177 17.5569C16.0084 18.1477 16.9662 18.1477 17.5569 17.5569C18.1477 16.9662 18.1477 16.0084 17.5569 15.4177L11.1393 9.00003Z" fill="black"/>
</svg>
