<svg version="1.1" id="header_footer" xmlns="http://www.w3.org/2000/svg" xmlns:xlink="http://www.w3.org/1999/xlink" x="0px"
	 y="0px" viewBox="0 0 210 32" style="enable-background:new 0 0 210 32;" xml:space="preserve">
	<style type="text/css">
		.st0{fill:#FFFFFF;}
	</style>
	<g>
		<g>
			<path class="st0" d="M199,9.1c0.7,0.5,1.3,1.1,1.7,1.7l4.9-4.9c-0.5-0.6-1.1-1.2-1.7-1.7L199,9.1z"/>
			<path class="st0" d="M208.6,20.8l-10.4-4.3c-0.1,0.9-0.4,1.6-0.9,2.3l10.4,4.3C208.1,22.4,208.4,21.6,208.6,20.8z"/>
			<path class="st0" d="M209.3,14.8h-6.9c0,0,0,0,0,0c0.1,0.4,0.1,0.8,0.1,1.2c0,0.4,0,0.8-0.1,1.2h6.9c0-0.4,0.1-0.8,0.1-1.2
				C209.4,15.6,209.4,15.2,209.3,14.8z"/>
			<path class="st0" d="M192.6,7.5c0.4-0.1,0.8-0.1,1.2-0.1c0.4,0,0.8,0,1.2,0.1c0,0,0,0,0,0V0.6c-0.4,0-0.8-0.1-1.2-0.1
				c-0.4,0-0.8,0-1.2,0.1V7.5z"/>
			<path class="st0" d="M180,23.1l10.4-4.3c-0.5-0.6-0.9-1.4-0.9-2.3l-10.4,4.3C179.3,21.6,179.7,22.4,180,23.1z"/>
			<path class="st0" d="M200.9,2.2c-0.7-0.4-1.5-0.7-2.3-0.9l-4.3,10.4c0.9,0.1,1.6,0.4,2.3,0.9L200.9,2.2z"/>
			<path class="st0" d="M208.6,11.2c-0.3-0.8-0.6-1.6-0.9-2.3l-10.4,4.3c0.5,0.6,0.9,1.4,0.9,2.3L208.6,11.2z"/>
			<path class="st0" d="M198.6,30.8c0.8-0.3,1.6-0.6,2.3-0.9l-4.3-10.4c-0.6,0.5-1.4,0.9-2.3,0.9L198.6,30.8z"/>
			<path class="st0" d="M185.3,17.3c-0.1-0.4-0.1-0.8-0.1-1.2c0-0.4,0-0.8,0.1-1.2h-6.9c0,0.4-0.1,0.8-0.1,1.2c0,0.4,0,0.8,0.1,1.2
				H185.3z"/>
			<path class="st0" d="M190.5,13.3L180,9c-0.4,0.7-0.7,1.5-0.9,2.3l10.4,4.3C189.6,14.7,189.9,13.9,190.5,13.3z"/>
			<path class="st0" d="M188.7,22.9C188.7,22.9,188.7,22.9,188.7,22.9c-0.7-0.5-1.3-1.1-1.7-1.7l-4.9,4.9c0.5,0.6,1.1,1.2,1.7,1.7
				L188.7,22.9z"/>
			<path class="st0" d="M200.8,21.2c-0.5,0.7-1.1,1.3-1.8,1.8c0,0,0,0,0,0l4.9,4.9c0.6-0.5,1.2-1.1,1.7-1.7L200.8,21.2z"/>
			<path class="st0" d="M195.1,24.6C195.1,24.6,195.1,24.6,195.1,24.6c-0.4,0.1-0.8,0.1-1.2,0.1c-0.4,0-0.8,0-1.2-0.1v6.9
				c0.4,0,0.8,0.1,1.2,0.1c0.4,0,0.8,0,1.2-0.1V24.6z"/>
			<path class="st0" d="M189.1,30.8l4.3-10.4c-0.9-0.1-1.6-0.4-2.3-0.9l-4.3,10.4C187.5,30.2,188.3,30.5,189.1,30.8z"/>
			<path class="st0" d="M186.9,10.9C186.9,10.9,186.9,10.9,186.9,10.9c0.5-0.7,1.1-1.3,1.7-1.7l-4.9-4.9c-0.6,0.5-1.2,1.1-1.7,1.7
				L186.9,10.9z"/>
			<path class="st0" d="M189.1,1.3c-0.8,0.3-1.6,0.6-2.3,0.9l4.3,10.4c0.6-0.5,1.4-0.9,2.3-0.9L189.1,1.3z"/>
		</g>
		<g>
			<path class="st0" d="M19.5,21.2c-1.2,1.7-2.8,2.2-3.3,2.2c-2.7,0-4.3-2.1-4.3-4.6c0-1.2,0.4-2.6,1.3-3.7c0.8-0.9,2-1.7,3.3-1.7
				c1.7,0,3.1,1.6,3.1,3.1c0,0.5-0.1,0.6-0.4,0.7c-0.3,0.1-3,0.3-5.7,0.4c-0.1,3.4,2,4.5,3.6,4.5c0.7,0,1.4-0.3,2.3-1L19.5,21.2z
				M13.5,16.9c1.3,0,2.6,0,3.9,0c0.3,0,0.4-0.1,0.4-0.7c0-1-0.6-2.1-2-2.1C14.8,14,13.7,15,13.5,16.9z"/>
			<path class="st0" d="M24.2,23.4l-2.8-7.9C21,14.3,21,14.2,19.9,14v-0.3h4.4V14l-0.9,0.2c-0.4,0.1-0.5,0.3-0.3,0.9l1.9,5.6h0
				c0.8-2.1,1.6-4.4,2.6-7h0.2l2.8,7h0c0.5-1.7,1.2-4,1.6-5.6c0.2-0.7,0.1-0.9-0.3-1l-1-0.2v-0.3h3.8V14c-1.1,0.3-1.2,0.4-1.6,1.4
				c-0.6,1.5-1.8,5.1-2.8,8H30l-2.9-6.9c-0.9,2.3-1.8,4.4-2.7,6.9H24.2z"/>
			<path class="st0" d="M42.2,19.9c0,2.4,0.2,2.6,2,2.9v0.3h-5.7v-0.3c1.8-0.2,2-0.5,2-2.9v-7.8c0-2.4-0.2-2.6-1.9-2.9V9h6
				c1.4,0,2.6,0.2,3.4,0.7c0.9,0.5,1.4,1.5,1.4,2.8c0,1.7-1.1,3.1-2.9,3.8c0.4,0.7,1.3,2.1,1.9,3.1c0.7,1,1.3,1.8,2,2.5
				c0.6,0.7,1,0.9,1.6,1l0,0.3c-0.3,0-0.6,0-1.3-0.1c-1.4-0.2-2.2-0.6-3.1-1.8c-0.9-1.2-1.6-2.6-2.3-3.7c-0.4-0.7-0.8-0.8-1.6-0.8
				h-1.6V19.9z M42.2,16.4h1.6c1.1,0,1.9-0.1,2.5-0.6c0.9-0.7,1.3-1.8,1.3-3c0-2.4-1.5-3.4-3.4-3.4c-0.7,0-1.6,0.1-1.8,0.2
				c-0.1,0-0.2,0.2-0.2,0.6V16.4z"/>
			<path class="st0" d="M59.3,21.2c-1.2,1.7-2.8,2.2-3.3,2.2c-2.7,0-4.3-2.1-4.3-4.6c0-1.2,0.4-2.6,1.3-3.7c0.8-0.9,2-1.7,3.3-1.7
				c1.7,0,3.1,1.6,3.1,3.1c0,0.5-0.1,0.6-0.4,0.7c-0.3,0.1-3,0.3-5.7,0.4c-0.1,3.4,2,4.5,3.6,4.5c0.7,0,1.4-0.3,2.3-1L59.3,21.2z
				M53.3,16.9c1.3,0,2.6,0,3.9,0c0.3,0,0.4-0.1,0.4-0.7c0-1-0.6-2.1-2-2.1C54.5,14,53.5,15,53.3,16.9z"/>
			<path class="st0" d="M66.2,16.1c-0.7-1.5-1.5-2.1-2.4-2.1c-0.9,0-1.4,0.6-1.4,1.5c0,1.1,1,1.6,2,2c1.7,0.7,2.6,1.4,2.6,2.9
				c0,2-1.9,3-3.5,3c-1.1,0-2.1-0.5-2.5-0.8c-0.1-0.3-0.3-1.5-0.3-2.4l0.3,0c0.4,1.2,1.5,2.7,2.8,2.7c0.9,0,1.7-0.5,1.7-1.7
				c0-1.1-0.7-1.5-1.8-2.1c-1.3-0.6-2.6-1.2-2.6-2.8c0-1.6,1.3-2.9,3.3-2.9c0.7,0,1.3,0.2,1.8,0.4c0.2,0.5,0.4,1.8,0.5,2.2L66.2,16.1
				z"/>
			<path class="st0" d="M75.9,21.2c-1.2,1.7-2.8,2.2-3.3,2.2c-2.7,0-4.3-2.1-4.3-4.6c0-1.2,0.4-2.6,1.3-3.7c0.8-0.9,2-1.7,3.3-1.7
				c1.7,0,3.1,1.6,3.1,3.1c0,0.5-0.1,0.6-0.4,0.7c-0.3,0.1-3,0.3-5.7,0.4c-0.1,3.4,2,4.5,3.6,4.5c0.7,0,1.4-0.3,2.3-1L75.9,21.2z
				M69.9,16.9c1.3,0,2.6,0,3.9,0c0.3,0,0.4-0.1,0.4-0.7c0-1-0.6-2.1-2-2.1C71.1,14,70.1,15,69.9,16.9z"/>
			<path class="st0" d="M83.9,20.9c0,0.8,0.3,1.2,0.6,1.2c0.2,0,0.5,0,0.9-0.2l0.2,0.3l-2.1,1.1c-0.8-0.1-1.1-0.9-1.2-1.5
				c-0.9,0.6-2.1,1.5-2.5,1.5c-1.6,0-2.6-1.3-2.6-2.5c0-1,0.5-1.7,1.7-2.1c1.1-0.4,2.7-1,3.5-1.5v-0.9c0-1.3-0.6-2.2-1.7-2.2
				c-0.5,0-0.9,0.2-1.1,0.3c-0.3,0.2-0.5,0.6-0.7,1.6c0,0.3-0.2,0.4-0.5,0.4c-0.3,0-0.9-0.3-0.9-0.8c0-0.2,0.2-0.5,0.7-0.9
				c0.5-0.4,1.8-1.2,3.3-1.5c0.6,0,1.2,0.2,1.6,0.5c0.8,0.6,0.9,1.3,0.9,2.1V20.9z M82.3,17.7c-0.5,0.2-1.8,0.8-2.2,1
				c-0.8,0.4-1.2,0.8-1.2,1.7c0,1.2,0.8,1.8,1.5,1.8c0.5,0,1.2-0.3,1.8-0.8V17.7z"/>
			<path class="st0" d="M89.1,21.1c0,1.2,0.1,1.4,1.8,1.7v0.3h-4.9v-0.3c1.4-0.2,1.5-0.5,1.5-1.7v-5c0-1.3,0-1.4-1.4-1.6v-0.3
				c0.9-0.2,2-0.4,3.1-0.9v2.4h0c0.5-0.9,1.5-2.3,2.5-2.3c0.7,0,1.2,0.6,1.2,1c0,0.3-0.2,0.8-0.7,1c-0.2,0.1-0.4,0.1-0.5,0
				c-0.3-0.3-0.5-0.4-0.9-0.4c-0.5,0-1,0.4-1.7,1.5V21.1z"/>
			<path class="st0" d="M100.5,14c0.2,0.1,0.2,0.3,0.2,0.5c0,0.5-0.4,1-0.7,1c-0.1,0-0.2,0-0.3-0.2c-0.8-0.8-1.6-1-2.4-1
				c-1.3,0-2.5,1-2.5,3.5c0,3.4,2.4,4.2,3.4,4.2c1,0,1.5-0.2,2.6-1.3l0.2,0.2c-0.9,1.4-2.2,2.4-3.5,2.4c-2.7,0-4.5-2.2-4.5-4.5
				c0-1.7,0.7-3.2,2-4.2c1.4-1.1,2.8-1.3,3.5-1.3C99.1,13.4,100,13.6,100.5,14z"/>
			<path class="st0" d="M104.4,15c0.8-0.7,1.9-1.5,3.1-1.6c1.8,0,3,1.1,3,3.2v4.6c0,1.2,0.1,1.4,1.4,1.7v0.3h-4.5v-0.3
				c1.4-0.2,1.5-0.5,1.5-1.7v-4c0-1.6-0.6-2.7-2.2-2.7c-0.9,0-1.7,0.4-2.2,1v5.7c0,1.2,0.1,1.4,1.4,1.7v0.3h-4.5v-0.3
				c1.3-0.2,1.4-0.5,1.4-1.7V10.3c0-1.3,0-1.4-1.5-1.6V8.4c1-0.2,2.4-0.5,3.1-0.8V15z"/>
			<path class="st0" d="M127.3,12.5c-0.9-2.5-2.3-3.4-4.5-3.4c-3.3,0-5.1,3.2-5.1,6.6c0,4.2,1.9,7.2,5.1,7.2c2.5,0,3.7-1.4,4.9-3.7
				l0.3,0.1c-0.3,0.9-0.8,2.7-1.1,3.5c-0.6,0.2-2.6,0.6-4.1,0.6c-4.9,0-7.3-3.7-7.3-7.2c0-4.5,3.3-7.6,7.7-7.6c1.9,0,3.3,0.4,3.9,0.6
				c0.2,1.2,0.3,2.2,0.4,3.3L127.3,12.5z"/>
			<path class="st0" d="M137,21.2c-1.2,1.7-2.8,2.2-3.3,2.2c-2.7,0-4.3-2.1-4.3-4.6c0-1.2,0.4-2.6,1.3-3.7c0.8-0.9,2-1.7,3.3-1.7
				c1.7,0,3.1,1.6,3.1,3.1c0,0.5-0.1,0.6-0.4,0.7c-0.3,0.1-3,0.3-5.7,0.4c-0.1,3.4,2,4.5,3.6,4.5c0.7,0,1.4-0.3,2.3-1L137,21.2z
				M131,16.9c1.3,0,2.6,0,3.9,0c0.3,0,0.4-0.1,0.4-0.7c0-1-0.6-2.1-2-2.1C132.2,14,131.2,15,131,16.9z"/>
			<path class="st0" d="M141,15.1c0.4-0.3,1-0.7,1.6-1c0.7-0.4,1.1-0.6,1.8-0.6c1.8,0,2.8,1.2,2.8,2.9v4.9c0,1.2,0.1,1.4,1.3,1.7v0.3
				h-4.5v-0.3c1.5-0.2,1.6-0.5,1.6-1.7V17c0-1.3-0.4-2.5-2.1-2.5c-0.8,0-1.6,0.5-2.4,1v5.6c0,1.2,0.1,1.4,1.5,1.7v0.3h-4.7v-0.3
				c1.5-0.2,1.6-0.5,1.6-1.7v-5c0-1.3,0-1.4-1.4-1.6v-0.3c0.9-0.2,2-0.4,3.1-0.9V15.1z"/>
			<path class="st0" d="M151.7,20.2c0,1.7,0.8,2.1,1.4,2.1c0.3,0,0.9-0.2,1.4-0.5l0.2,0.3l-1.8,1c-0.3,0.2-0.5,0.2-0.6,0.2
				c-1.5,0-2.2-0.9-2.2-2.5v-6.4h-1.6l-0.1-0.2l0.7-0.5h1v-1.3l1.3-1.7l0.3,0.1v2.8h2.6c0.2,0.2,0.1,0.5-0.2,0.7h-2.4V20.2z"/>
			<path class="st0" d="M162.8,21.2c-1.2,1.7-2.8,2.2-3.3,2.2c-2.7,0-4.3-2.1-4.3-4.6c0-1.2,0.4-2.6,1.3-3.7c0.8-0.9,2-1.7,3.3-1.7
				c1.7,0,3.1,1.6,3.1,3.1c0,0.5-0.1,0.6-0.4,0.7c-0.3,0.1-3,0.3-5.7,0.4c-0.1,3.4,2,4.5,3.6,4.5c0.7,0,1.4-0.3,2.3-1L162.8,21.2z
				M156.8,16.9c1.3,0,2.6,0,3.9,0c0.3,0,0.4-0.1,0.4-0.7c0-1-0.6-2.1-2-2.1C158.1,14,157,15,156.8,16.9z"/>
			<path class="st0" d="M166.8,21.1c0,1.2,0.1,1.4,1.8,1.7v0.3h-4.9v-0.3c1.4-0.2,1.5-0.5,1.5-1.7v-5c0-1.3,0-1.4-1.4-1.6v-0.3
				c0.9-0.2,2-0.4,3.1-0.9v2.4h0c0.5-0.9,1.5-2.3,2.5-2.3c0.7,0,1.2,0.6,1.2,1c0,0.3-0.2,0.8-0.7,1c-0.2,0.1-0.4,0.1-0.5,0
				c-0.3-0.3-0.5-0.4-0.9-0.4c-0.5,0-1,0.4-1.7,1.5V21.1z"/>
			<path class="st0" d="M4.3,19.9c0,2.4,0.2,2.6,2.3,2.9v0.3h-6v-0.3c1.8-0.2,2-0.5,2-2.9v-7.8c0-2.4-0.2-2.6-1.9-2.9V9h6
				c1.5,0,2.7,0.2,3.6,0.9c0.8,0.6,1.4,1.6,1.4,3c0,2.6-2.2,4.1-4.2,4.4c-0.3,0-0.9,0-1.1,0l-2.1-0.5V19.9z M4.3,16.3
				c0.3,0.1,1.2,0.3,2,0.3c1.6,0,3.4-0.8,3.4-3.7c0-2.5-1.3-3.5-3.5-3.5c-0.6,0-1.5,0.1-1.7,0.2c-0.1,0-0.2,0.1-0.2,0.6V16.3z"/>
		</g>
	</g>
</svg>
